<?xml version="1.0" encoding="utf-8"?>
<!-- Generator: Adobe Illustrator 24.3.0, SVG Export Plug-In . SVG Version: 6.00 Build 0)  -->
<svg version="1.1" id="Layer_1" xmlns="http://www.w3.org/2000/svg" xmlns:xlink="http://www.w3.org/1999/xlink" x="0px" y="0px"
	 viewBox="0 0 792 612" style="enable-background:new 0 0 792 612;" xml:space="preserve">
<style type="text/css">
	.st0{fill:#FFFFFF;}
</style>
<g>
	<g>
		<g>
			<g>
				<g>
					<path class="st0" d="M347.4,291.5l9,20.6H338L347.4,291.5z M345.8,274.8l-28.2,60.6h9.9l6.8-14.7h26l6.4,14.7h10l-27.2-60.6
						H345.8z"/>
					<polygon class="st0" points="395.2,335.4 390.6,335.4 386,335.4 386,274.8 390.6,274.8 395.2,274.8 395.2,331.8 					"/>
					<g>
						<path class="st0" d="M443.2,303.8h25.1v2c0,4.6-0.5,8.6-1.6,12.1c-1,3.2-2.8,6.3-5.3,9.1c-5.6,6.3-12.8,9.5-21.5,9.5
							c-8.5,0-15.7-3.1-21.8-9.2c-6-6.2-9.1-13.5-9.1-22.1c0-8.8,3.1-16.3,9.2-22.4c6.2-6.2,13.6-9.2,22.5-9.2c4.7,0,9.2,1,13.3,2.9
							c3.9,1.9,7.8,5.1,11.6,9.4l-6.5,6.2c-5-6.6-11-9.9-18.2-9.9c-6.4,0-11.8,2.2-16.1,6.6c-4.3,4.3-6.5,9.8-6.5,16.3
							c0,6.8,2.4,12.3,7.3,16.7c4.5,4.1,9.4,6.1,14.7,6.1c4.5,0,8.5-1.5,12.1-4.5c3.6-3.1,5.6-6.7,6-11h-15.1V303.8z"/>
					</g>
				</g>
				<g>
					<g>
						<path class="st0" d="M304.1,259.4h183.1v91.3H304.1V259.4z M295.8,359.1h199.7v-108H295.8V359.1z"/>
					</g>
				</g>
			</g>
		</g>
	</g>
	<path class="st0" d="M505,350.5c2.3,0,4.2,1.8,4.2,4.2c0,2.4-1.9,4.2-4.2,4.2c-2.3,0-4.3-1.8-4.3-4.2
		C500.7,352.3,502.7,350.5,505,350.5 M505,358.3c2,0,3.5-1.6,3.5-3.6c0-2-1.5-3.6-3.5-3.6c-2,0-3.5,1.6-3.5,3.6
		C501.5,356.8,503,358.3,505,358.3 M503.3,352.2h1.9c1.2,0,1.7,0.5,1.7,1.4c0,0.9-0.6,1.3-1.3,1.3l1.4,2.2h-0.8l-1.4-2.1h-0.8v2.1
		h-0.8V352.2z M504.1,354.4h0.8c0.7,0,1.3,0,1.3-0.8c0-0.7-0.6-0.8-1.1-0.8h-1V354.4z"/>
</g>
</svg>
