<svg width="196" height="96" viewBox="0 0 196 96" fill="none" xmlns="http://www.w3.org/2000/svg">
<g clip-path="url(#clip0)">
<path fill-rule="evenodd" clip-rule="evenodd" d="M147.586 30.6361L136.956 56.8648H145.114C145.114 56.8648 149.678 44.523 153.684 33.6975C155.384 34.6316 157.056 35.6201 158.699 36.6628C162.668 39.1895 166.381 41.9801 169.819 45.0156C172.343 51.6442 174.331 56.8648 174.331 56.8648H182.489L159.966 0L159.316 1.69163L148.234 29.0373C142.147 26.2645 135.736 24.126 129.026 22.6277V8.1979H140.726V1.36632H110.729V8.1979H121.941V21.3004C116.29 20.439 110.447 20.0068 104.424 20.0068C93.3276 20.0068 83.4923 21.2563 74.8743 23.2359C77.0054 11.3019 85.6061 9.36916 93.1787 9.10878C99.9514 8.89502 103.918 11.1178 104.405 11.3911C104.437 11.4089 104.454 11.4185 104.456 11.4185L105.594 12.1342V4.22908L105.139 4.03389C105.113 4.02742 105.015 3.99106 104.855 3.9313C103.404 3.38979 96.8027 0.926851 91.6512 1.36632C84.1351 2.03014 66.8913 5.70417 65.9214 25.6704C61.7819 26.9781 57.9864 28.4405 54.5283 29.9782L42.7063 0.130128L42.0563 1.82176L19.6963 56.9949H27.8538C27.8538 56.9949 29.5594 52.3832 31.8003 46.3253C34.3763 44.0811 37.4829 41.6531 41.1463 39.2328C43.3457 37.7769 45.8324 36.2715 48.6121 34.7828C52.6429 45.3657 57.0713 56.9949 57.0713 56.9949H65.2288L55.1621 31.5786C58.4251 30.1259 61.9952 28.7403 65.8787 27.4913C65.8959 53.3868 85.0564 56.6047 90.9362 56.9624C98.8337 57.4504 104.716 54.5876 104.976 54.4575L105.366 54.2623V46.4548L104.261 47.0729C104.229 47.1054 99.6787 49.6428 91.4562 49.6428C87.9787 49.6428 83.1037 48.8621 79.4312 45.0559C75.8887 41.4124 74.1987 35.7194 74.3937 28.1721C74.4242 27.0756 74.4968 26.0417 74.6081 25.0669C83.2616 23.0278 93.1838 21.7309 104.424 21.7309C110.452 21.7309 116.296 22.1694 121.941 23.0438V56.9949H129.026V24.3938C135.506 25.8667 141.7 27.9488 147.586 30.6361ZM47.9958 33.1645C45.2192 25.8747 42.7571 19.4116 42.2513 18.0874C41.5379 20.0042 36.8447 32.6888 33.0075 43.0618C35.0899 41.3782 37.4518 39.6249 40.1063 37.8665C42.4203 36.3284 45.0481 34.7361 47.9958 33.1645ZM154.288 32.0633C156.094 33.0487 157.867 34.0939 159.609 35.1989C162.743 37.172 165.716 39.3113 168.52 41.6063C164.674 31.5067 160.212 19.7931 159.511 17.9573C159.04 19.2223 156.836 25.1777 154.288 32.0633Z" fill="#6f6d81"/>
<path d="M105.301 33.1169C105.366 33.247 105.464 33.2796 105.594 33.247L106.829 32.5314L106.049 36.3375C105.919 36.6303 106.276 36.8255 106.471 36.6303L108.064 34.8085L108.421 35.6869C108.551 35.8495 108.649 35.8495 108.844 35.8495L110.631 35.4266L110.046 37.6062C109.981 37.7364 110.046 37.899 110.111 37.899L110.891 38.2569L107.641 40.8594C107.511 40.9244 107.349 41.1522 107.414 41.3799L107.836 42.4534L104.586 41.8678C104.359 41.8678 104.294 41.998 104.294 42.0305L104.359 45.4138H103.806L103.871 42.0305C103.871 41.9654 103.806 41.8678 103.579 41.8678L100.329 42.4534L100.751 41.3799C100.816 41.1522 100.621 40.8919 100.524 40.8594L97.2737 38.2569L97.9887 37.899C98.1187 37.899 98.1512 37.7364 98.1187 37.6062L97.5337 35.4266L99.2562 35.8495C99.4187 35.8495 99.6137 35.8495 99.7437 35.6869L100.101 34.8085L101.694 36.6303C101.856 36.793 102.181 36.6303 102.116 36.3375L101.336 32.5314L102.571 33.247C102.701 33.3121 102.799 33.247 102.864 33.1169L104.099 30.6771L105.301 33.1169Z" fill="#6f6d81"/>
<path d="M185.999 67.6977H16.2188L18.8837 61.1264H183.431L185.999 67.6977Z" fill="#6f6d81"/>
<path d="M70.2338 78.4656V82.7272H71.0138V78.4005H72.0863V77.7174H71.0138V77.4571C71.0138 76.7089 71.2088 76.0258 71.8913 76.0258C72.1189 76.0258 72.2813 76.0908 72.4113 76.1559L72.5089 75.4727C72.3463 75.4077 72.1189 75.3426 71.8263 75.3426C71.4688 75.3426 71.0463 75.4727 70.7538 75.798C70.3963 76.1884 70.2338 76.839 70.2338 77.5222V77.7824H69.6163V78.4656H70.2338Z" fill="#6f6d81"/>
<path d="M39.3589 76.839C39.0664 76.839 38.8714 76.5788 38.8714 76.2535C38.8714 75.9282 39.0664 75.6679 39.3914 75.6679C39.7164 75.6679 39.9114 75.9282 39.9114 76.2535C39.8789 76.5788 39.6839 76.839 39.3589 76.839Z" fill="#6f6d81"/>
<path d="M38.9689 77.7499H39.7814V82.7272H38.9689V77.7499Z" fill="#6f6d81"/>
<path fill-rule="evenodd" clip-rule="evenodd" d="M16.4789 80.5476L15.8289 82.7272H15.0164L17.1289 75.8306H18.1039L20.2164 82.7272H19.3713L18.7213 80.5476H16.4789ZM17.9088 77.88L18.5162 79.8319H16.6414L17.2588 77.8475C17.3563 77.4246 17.4538 77.0017 17.5513 76.6113H17.5838C17.6813 77.0342 17.7788 77.4246 17.9088 77.88Z" fill="#6f6d81"/>
<path d="M21.2563 81.8163C21.5163 81.979 21.9389 82.1742 22.3288 82.1742C22.9139 82.1742 23.1738 81.8489 23.1738 81.426C23.1738 81.0031 22.9464 80.7753 22.3613 80.5151C21.5488 80.1898 21.1588 79.7018 21.1588 79.1162C21.1588 78.3029 21.7438 77.6523 22.6863 77.6523C23.1413 77.6523 23.5313 77.7824 23.7914 77.9776L23.5963 78.6283C23.4338 78.5307 23.1089 78.3355 22.6863 78.3355C22.1989 78.3355 21.9388 78.6608 21.9388 79.0186C21.9388 79.4416 22.1988 79.6367 22.7838 79.8645C23.5638 80.1898 23.9538 80.6127 23.9538 81.3609C23.9538 82.2392 23.3363 82.8573 22.2963 82.8573C21.8088 82.8573 21.3539 82.7272 21.0289 82.4995L21.2563 81.8163Z" fill="#6f6d81"/>
<path d="M26.2614 82.1742C25.8714 82.1742 25.4489 81.979 25.1889 81.8163L24.9614 82.4995C25.2864 82.7272 25.7414 82.8573 26.2289 82.8573C27.2689 82.8573 27.8864 82.2392 27.8864 81.3609C27.8864 80.6127 27.4964 80.1898 26.7164 79.8645C26.1314 79.6367 25.8714 79.4416 25.8714 79.0186C25.8714 78.6608 26.1314 78.3355 26.6189 78.3355C27.0414 78.3355 27.3664 78.5307 27.5289 78.6283L27.7239 77.9776C27.4639 77.7824 27.0739 77.6523 26.6189 77.6523C25.6764 77.6523 25.0914 78.3029 25.0914 79.1162C25.0914 79.7018 25.4814 80.1898 26.2939 80.5151C26.8789 80.7753 27.1064 81.0031 27.1064 81.426C27.1064 81.8489 26.8464 82.1742 26.2614 82.1742Z" fill="#6f6d81"/>
<path fill-rule="evenodd" clip-rule="evenodd" d="M31.0389 82.8248C29.8364 82.8248 28.8939 81.8489 28.8939 80.2874C28.8939 78.6283 29.8689 77.6523 31.1039 77.6523C32.3714 77.6523 33.2489 78.6933 33.2489 80.1898C33.2489 82.0441 32.1114 82.8248 31.0389 82.8248ZM31.0714 82.1417C31.8514 82.1417 32.4364 81.3284 32.4364 80.1898C32.4364 79.344 32.0464 78.3029 31.1039 78.3029C30.1614 78.3029 29.7389 79.2789 29.7389 80.2223C29.7064 81.3284 30.2589 82.1417 31.0714 82.1417Z" fill="#6f6d81"/>
<path d="M36.4664 82.8573C37.0514 82.8573 37.5389 82.6947 37.7339 82.5646L37.6689 81.9139C37.4414 82.0115 37.1164 82.1417 36.6614 82.1417C35.7514 82.1417 35.1014 81.426 35.1014 80.2874C35.1014 79.2464 35.6539 78.4005 36.6614 78.4005C37.1164 78.4005 37.4089 78.5307 37.6039 78.6283L37.7989 77.9451C37.5714 77.815 37.1489 77.6849 36.6614 77.6849C35.1989 77.6849 34.2564 78.7909 34.2564 80.3199C34.2564 81.8489 35.1339 82.8573 36.4664 82.8573Z" fill="#6f6d81"/>
<path fill-rule="evenodd" clip-rule="evenodd" d="M44.5914 82.6947C44.5589 82.3694 44.5264 81.9465 44.5264 81.5236H44.4939V79.6693C44.4939 78.6933 44.1689 77.6523 42.8039 77.6523C42.2514 77.6523 41.6989 77.815 41.3414 78.0752L41.5364 78.6933C41.8614 78.4656 42.2839 78.3355 42.7064 78.3355C43.6164 78.3029 43.7139 79.0512 43.7139 79.4741V79.5391C42.0239 79.5391 41.0489 80.1898 41.0489 81.3934C41.0489 82.1091 41.5039 82.8248 42.4139 82.8248C43.0639 82.8248 43.5514 82.467 43.7789 82.0766H43.8114L43.8764 82.6947H44.5914ZM41.8614 81.2958C41.8614 80.3524 42.8689 80.1572 43.7464 80.1898V81.0356C43.7464 81.1332 43.7464 81.2308 43.7139 81.3284C43.5839 81.7187 43.1939 82.1417 42.6089 82.1417C42.2189 82.1417 41.8614 81.8814 41.8614 81.2958Z" fill="#6f6d81"/>
<path d="M47.0939 76.5788V77.7499H48.2639V78.4331H47.0939V81.1006C47.0939 81.7187 47.2564 82.0766 47.7114 82.0766C47.9389 82.0766 48.0689 82.0441 48.1989 82.0115L48.2314 82.6947C48.0689 82.7597 47.8089 82.8248 47.5164 82.8248C47.1264 82.8248 46.8339 82.6622 46.6389 82.4344C46.4114 82.1742 46.3139 81.7187 46.3139 81.1332V78.4331H45.6314V77.7499H46.3139V76.839L47.0939 76.5788Z" fill="#6f6d81"/>
<path d="M49.3038 76.2535C49.3038 76.5788 49.5313 76.839 49.8238 76.839C50.1488 76.839 50.3438 76.5788 50.3438 76.2535C50.3438 75.9282 50.1488 75.6679 49.8238 75.6679C49.5313 75.6679 49.3038 75.9282 49.3038 76.2535Z" fill="#6f6d81"/>
<path d="M50.2463 77.7499H49.4338V82.7272H50.2463V77.7499Z" fill="#6f6d81"/>
<path fill-rule="evenodd" clip-rule="evenodd" d="M53.6914 82.8248C52.4889 82.8248 51.5464 81.8489 51.5464 80.2874C51.5464 78.6283 52.5214 77.6523 53.7564 77.6523C55.0239 77.6523 55.9014 78.6933 55.9014 80.1898C55.9014 82.0441 54.7639 82.8248 53.6914 82.8248ZM53.7239 82.1417C54.5039 82.1417 55.0889 81.3284 55.0889 80.1898C55.0889 79.344 54.6989 78.3029 53.7564 78.3029C52.8139 78.3029 52.3914 79.2789 52.3914 80.2223C52.3589 81.3284 52.9114 82.1417 53.7239 82.1417Z" fill="#6f6d81"/>
<path d="M57.1689 77.7824C57.2014 78.1728 57.2014 78.5957 57.2014 79.1162H57.1689V82.7598H57.9814V79.7669C57.9814 79.6367 58.0139 79.4741 58.0464 79.344C58.1764 78.856 58.5989 78.4331 59.1189 78.4331C59.8989 78.4331 60.1589 79.0837 60.1589 79.897V82.7598H60.9714V79.7994C60.9714 78.1078 59.9964 77.6849 59.3789 77.6849C58.6639 77.6849 58.1439 78.1403 57.9164 78.5957L57.8839 77.7824H57.1689Z" fill="#6f6d81"/>
<path fill-rule="evenodd" clip-rule="evenodd" d="M66.6264 82.8248C65.4239 82.8248 64.4814 81.8489 64.4814 80.2874C64.4814 78.6283 65.4564 77.6523 66.6914 77.6523C67.9589 77.6523 68.8364 78.6933 68.8364 80.1898C68.8689 82.0441 67.6989 82.8248 66.6264 82.8248ZM66.6589 82.1417C67.4389 82.1417 68.0239 81.3284 68.0239 80.1898C68.0239 79.344 67.6339 78.3029 66.6914 78.3029C65.7489 78.3029 65.3264 79.2789 65.3264 80.2223C65.3264 81.3284 65.8789 82.1417 66.6589 82.1417Z" fill="#6f6d81"/>
<path d="M79.7239 82.4995C79.4314 82.6622 78.8464 82.8248 78.0664 82.8248C76.3114 82.8248 75.0114 81.5886 75.0114 79.3114C75.0114 77.1318 76.3439 75.6679 78.2614 75.6679C79.0414 75.6679 79.5289 75.8631 79.7564 75.9607L79.5614 76.6764C79.2689 76.5137 78.8464 76.3836 78.3264 76.3836C76.8639 76.3836 75.8889 77.4246 75.8889 79.2464C75.8889 80.938 76.7664 82.0115 78.2614 82.0115C78.7489 82.0115 79.2689 81.9139 79.5614 81.7187L79.7239 82.4995Z" fill="#6f6d81"/>
<path fill-rule="evenodd" clip-rule="evenodd" d="M84.1764 82.6947C84.1439 82.3694 84.1114 81.9465 84.1114 81.5236H84.0788V79.6693C84.0788 78.6933 83.7539 77.6523 82.3889 77.6523C81.8364 77.6523 81.2839 77.815 80.9264 78.0752L81.1214 78.6933C81.4464 78.4656 81.8689 78.3355 82.2914 78.3355C83.2013 78.3029 83.2989 79.0512 83.2989 79.4741V79.5391C81.6088 79.5391 80.6339 80.1898 80.6339 81.3934C80.6339 82.1091 81.0889 82.8248 81.9988 82.8248C82.6488 82.8248 83.1364 82.467 83.3639 82.0766H83.3964L83.4613 82.6947H84.1764ZM81.4464 81.2958C81.4464 80.3524 82.4538 80.1572 83.3314 80.1898V81.0356C83.3314 81.1332 83.3314 81.2308 83.2989 81.3284C83.1689 81.7187 82.7789 82.1417 82.1939 82.1417C81.8039 82.1417 81.4464 81.8814 81.4464 81.2958Z" fill="#6f6d81"/>
<path d="M85.7038 79.1162V79.1158C85.7038 78.5955 85.7038 78.1727 85.6714 77.7824H86.3864L86.4189 78.5957C86.6464 78.1403 87.1664 77.6849 87.8814 77.6849C88.4988 77.6849 89.4738 78.1078 89.4738 79.7994V82.7598H88.6613V79.897C88.6613 79.0837 88.4014 78.4331 87.6214 78.4331C87.1014 78.4331 86.6788 78.856 86.5489 79.344C86.5163 79.4741 86.4839 79.6367 86.4839 79.7669V82.7598H85.6714V79.1162H85.7038Z" fill="#6f6d81"/>
<path fill-rule="evenodd" clip-rule="evenodd" d="M94.2839 82.6947C94.2514 82.3694 94.2188 81.9465 94.2188 81.5236H94.1863V79.6693C94.1863 78.6933 93.8614 77.6523 92.4964 77.6523C91.9439 77.6523 91.3914 77.815 91.0339 78.0752L91.2289 78.6933C91.5538 78.4656 91.9764 78.3355 92.3988 78.3355C93.3088 78.3029 93.4063 79.0512 93.4063 79.4741V79.5391C91.7163 79.5391 90.7413 80.1898 90.7413 81.3934C90.7413 82.1091 91.1964 82.8248 92.1064 82.8248C92.7564 82.8248 93.2439 82.467 93.4714 82.0766H93.5038L93.5689 82.6947H94.2839ZM91.5538 81.2958C91.5538 80.3524 92.5613 80.1572 93.4389 80.1898V81.0356C93.4389 81.1332 93.4389 81.2308 93.4063 81.3284C93.2764 81.7187 92.8864 82.1417 92.3014 82.1417C91.9113 82.1417 91.5538 81.8814 91.5538 81.2958Z" fill="#6f6d81"/>
<path fill-rule="evenodd" clip-rule="evenodd" d="M99.6464 75.4402V81.4264C99.6464 81.8817 99.6464 82.3695 99.6789 82.6947H98.9639L98.9314 81.8489H98.8989C98.6389 82.4019 98.1189 82.8248 97.4039 82.8248C96.3314 82.8248 95.4864 81.8163 95.4864 80.3199C95.4864 78.6608 96.3964 77.6523 97.4689 77.6523C98.1514 77.6523 98.6389 78.0102 98.8014 78.4005H98.8339V75.4402H99.6464ZM98.8339 79.7994C98.8339 79.6693 98.8339 79.5391 98.8014 79.409C98.6714 78.856 98.2489 78.368 97.6314 78.368C96.7864 78.368 96.2989 79.1813 96.2989 80.2874C96.2989 81.2958 96.7539 82.1417 97.6314 82.1417C98.1839 82.1417 98.6714 81.7187 98.8339 81.0681C98.8664 80.938 98.8664 80.8079 98.8664 80.6779V79.7994H98.8339Z" fill="#6f6d81"/>
<path d="M101.141 76.2535C101.141 76.5788 101.369 76.839 101.661 76.839C101.986 76.839 102.181 76.5788 102.181 76.2535C102.181 75.9282 101.986 75.6679 101.661 75.6679C101.369 75.6679 101.141 75.9282 101.141 76.2535Z" fill="#6f6d81"/>
<path d="M102.084 77.7499H101.271V82.7272H102.084V77.7499Z" fill="#6f6d81"/>
<path fill-rule="evenodd" clip-rule="evenodd" d="M106.861 81.5236C106.861 81.9465 106.894 82.3694 106.926 82.6947H106.211L106.146 82.0766H106.081C105.854 82.467 105.366 82.8248 104.716 82.8248C103.806 82.8248 103.351 82.1091 103.351 81.3934C103.351 80.1898 104.326 79.5391 106.016 79.5391V79.4741C106.016 79.0512 105.919 78.3029 105.009 78.3355C104.586 78.3355 104.164 78.4656 103.839 78.6933L103.644 78.0752C104.001 77.815 104.554 77.6523 105.106 77.6523C106.471 77.6523 106.796 78.6933 106.796 79.6693V81.5236H106.861ZM106.049 80.1898C105.171 80.1572 104.164 80.3524 104.164 81.2958C104.164 81.8814 104.521 82.1417 104.911 82.1417C105.496 82.1417 105.886 81.7187 106.016 81.3284C106.049 81.2308 106.049 81.1332 106.049 81.0356V80.1898Z" fill="#6f6d81"/>
<path d="M108.389 77.7824C108.421 78.1728 108.421 78.5957 108.421 79.1162H108.389V82.7598H109.201V79.7669C109.201 79.6367 109.234 79.4741 109.266 79.344C109.396 78.856 109.819 78.4331 110.339 78.4331C111.119 78.4331 111.379 79.0837 111.379 79.897V82.7598H112.191V79.7994C112.191 78.1078 111.249 77.6849 110.631 77.6849C109.884 77.6849 109.364 78.1403 109.136 78.5957L109.104 77.7824H108.389Z" fill="#6f6d81"/>
<path d="M117.261 76.5788H115.344V75.8306H119.959V76.5788H118.074V82.7272H117.261V76.5788Z" fill="#6f6d81"/>
<path d="M120.869 77.7499C120.901 78.2379 120.901 78.7259 120.901 79.3114V82.6947H121.714V80.0596C121.714 79.9946 121.722 79.9214 121.73 79.8482C121.738 79.775 121.746 79.7018 121.746 79.6367C121.844 78.9861 122.266 78.4981 122.819 78.4981C122.889 78.4981 122.94 78.5075 122.987 78.5162C123.028 78.5237 123.066 78.5307 123.111 78.5307V77.6849C123.046 77.6523 122.949 77.6523 122.884 77.6523C122.331 77.6523 121.844 78.0752 121.649 78.7259H121.616L121.584 77.7499H120.869Z" fill="#6f6d81"/>
<path fill-rule="evenodd" clip-rule="evenodd" d="M127.336 81.5236C127.336 81.9465 127.369 82.3694 127.401 82.6947H126.686L126.621 82.0766H126.556C126.329 82.467 125.841 82.8248 125.191 82.8248C124.281 82.8248 123.826 82.1091 123.826 81.3934C123.826 80.1898 124.801 79.5391 126.491 79.5391V79.4741C126.491 79.0512 126.394 78.3029 125.484 78.3355C125.061 78.3355 124.639 78.4656 124.314 78.6933L124.119 78.0752C124.476 77.815 125.029 77.6523 125.581 77.6523C126.946 77.6523 127.271 78.6933 127.271 79.6693V81.5236H127.336ZM126.524 80.1898C125.646 80.1572 124.639 80.3524 124.639 81.2958C124.639 81.8814 124.996 82.1417 125.386 82.1417C125.971 82.1417 126.361 81.7187 126.491 81.3284C126.524 81.2308 126.524 81.1332 126.524 81.0356V80.1898Z" fill="#6f6d81"/>
<path d="M130.099 80.5151L129.221 77.7499H128.376L130.066 82.6947H130.846L132.601 77.7499H131.756L130.879 80.5151C130.716 80.9705 130.586 81.3609 130.489 81.7838H130.456C130.449 81.756 130.442 81.7281 130.436 81.6999L130.42 81.6376C130.334 81.2884 130.241 80.9142 130.099 80.5151Z" fill="#6f6d81"/>
<path fill-rule="evenodd" clip-rule="evenodd" d="M134.064 80.385C134.096 81.5886 134.779 82.1091 135.591 82.1091C136.176 82.1091 136.534 81.979 136.826 81.8489L136.989 82.4995C136.696 82.6296 136.209 82.8248 135.494 82.8248C134.129 82.8248 133.316 81.8163 133.316 80.3199C133.316 78.8235 134.129 77.6523 135.429 77.6523C136.891 77.6523 137.249 79.0837 137.249 79.9946C137.249 80.1898 137.249 80.3199 137.216 80.4175L134.064 80.385ZM136.436 79.7669C136.436 79.2138 136.241 78.3029 135.331 78.3029C134.519 78.3029 134.161 79.1488 134.096 79.7669H136.436Z" fill="#6f6d81"/>
<path d="M138.516 75.4402H139.329V82.7272H138.516V75.4402Z" fill="#6f6d81"/>
<path fill-rule="evenodd" clip-rule="evenodd" d="M144.204 80.5476L143.554 82.7272H142.741L144.854 75.8306H145.829L147.941 82.7272H147.096L146.446 80.5476H144.204ZM145.601 77.88L146.209 79.8319H144.334L144.951 77.8475C145.049 77.4246 145.146 77.0017 145.244 76.6113H145.276C145.374 77.0342 145.471 77.4246 145.601 77.88Z" fill="#6f6d81"/>
<path fill-rule="evenodd" clip-rule="evenodd" d="M152.264 84.2562C152.686 83.8008 152.914 83.1176 152.914 81.979H152.849V79.0186C152.849 78.4005 152.849 78.0102 152.881 77.6523H152.166L152.134 78.4005C151.939 78.0102 151.516 77.5547 150.736 77.5547C149.696 77.5547 148.721 78.4981 148.721 80.1898C148.721 81.5886 149.501 82.6296 150.606 82.6296C151.321 82.6296 151.809 82.2718 152.036 81.8163H152.069V82.3694C152.069 83.6381 151.451 84.1261 150.639 84.1261C150.086 84.1261 149.631 83.9634 149.339 83.7357L149.144 84.4188C149.501 84.6791 150.119 84.8418 150.639 84.8418C151.191 84.8418 151.809 84.7116 152.264 84.2562ZM152.069 79.3114C152.101 79.409 152.101 79.5717 152.101 79.7018H152.134V80.5801C152.134 80.7428 152.101 80.938 152.069 81.0681C151.906 81.6537 151.451 82.0115 150.931 82.0115C150.054 82.0115 149.599 81.1982 149.599 80.2223C149.599 79.0512 150.151 78.3355 150.931 78.3355C151.549 78.3355 151.906 78.7909 152.069 79.3114Z" fill="#6f6d81"/>
<path fill-rule="evenodd" clip-rule="evenodd" d="M154.961 80.385C154.961 81.5886 155.676 82.1091 156.489 82.1091C157.074 82.1091 157.431 81.979 157.724 81.8489L157.886 82.4995C157.594 82.6296 157.106 82.8248 156.391 82.8248C155.026 82.8248 154.214 81.8163 154.214 80.3199C154.214 78.8235 155.026 77.6523 156.326 77.6523C157.789 77.6523 158.146 79.0837 158.146 79.9946C158.146 80.1898 158.146 80.3199 158.114 80.4175L154.961 80.385ZM157.334 79.7669C157.334 79.2138 157.139 78.3029 156.229 78.3029C155.416 78.3029 155.059 79.1488 154.994 79.7669H157.334Z" fill="#6f6d81"/>
<path d="M159.414 79.1158V79.1162H159.381V82.7598H160.194V79.7669C160.194 79.6367 160.226 79.4741 160.259 79.344C160.389 78.856 160.811 78.4331 161.331 78.4331C162.111 78.4331 162.371 79.0837 162.371 79.897V82.7598H163.184V79.7994C163.184 78.1078 162.209 77.6849 161.591 77.6849C160.876 77.6849 160.356 78.1403 160.129 78.5957L160.096 77.7824H159.381C159.414 78.1727 159.414 78.5955 159.414 79.1158Z" fill="#6f6d81"/>
<path d="M167.961 82.5646C167.766 82.6947 167.279 82.8573 166.694 82.8573C165.361 82.8573 164.484 81.8489 164.484 80.3199C164.484 78.7909 165.426 77.6849 166.889 77.6849C167.376 77.6849 167.799 77.815 168.026 77.9451L167.831 78.6283C167.636 78.5307 167.344 78.4005 166.889 78.4005C165.881 78.4005 165.329 79.2464 165.329 80.2874C165.329 81.426 165.979 82.1417 166.889 82.1417C167.344 82.1417 167.669 82.0115 167.896 81.9139L167.961 82.5646Z" fill="#6f6d81"/>
<path d="M169.066 76.2535C169.066 76.5788 169.294 76.839 169.586 76.839C169.911 76.839 170.106 76.5788 170.106 76.2535C170.106 75.9282 169.911 75.6679 169.586 75.6679C169.294 75.6679 169.066 75.9282 169.066 76.2535Z" fill="#6f6d81"/>
<path d="M170.009 77.7499H169.196V82.7272H170.009V77.7499Z" fill="#6f6d81"/>
<path fill-rule="evenodd" clip-rule="evenodd" d="M172.089 80.385C172.089 81.5886 172.804 82.1091 173.616 82.1091C174.201 82.1091 174.559 81.979 174.851 81.8489L175.014 82.4995C174.721 82.6296 174.234 82.8248 173.519 82.8248C172.154 82.8248 171.341 81.8163 171.341 80.3199C171.341 78.8235 172.154 77.6523 173.454 77.6523C174.916 77.6523 175.274 79.0837 175.274 79.9946C175.274 80.1898 175.274 80.3199 175.241 80.4175L172.089 80.385ZM174.461 79.7669C174.461 79.2138 174.266 78.3029 173.356 78.3029C172.544 78.3029 172.186 79.1488 172.121 79.7669H174.461Z" fill="#6f6d81"/>
<path d="M177.484 82.1742C177.094 82.1742 176.671 81.979 176.411 81.8163L176.184 82.4995C176.509 82.7272 176.964 82.8573 177.451 82.8573C178.491 82.8573 179.109 82.2392 179.109 81.3609C179.109 80.6127 178.719 80.1898 177.939 79.8645C177.354 79.6367 177.094 79.4416 177.094 79.0186C177.094 78.6608 177.354 78.3355 177.841 78.3355C178.264 78.3355 178.589 78.5307 178.751 78.6283L178.946 77.9776C178.686 77.7824 178.296 77.6523 177.841 77.6523C176.899 77.6523 176.314 78.3029 176.314 79.1162C176.314 79.7018 176.704 80.1898 177.516 80.5151C178.101 80.7753 178.329 81.0031 178.329 81.426C178.329 81.8489 178.069 82.1742 177.484 82.1742Z" fill="#6f6d81"/>
<path fill-rule="evenodd" clip-rule="evenodd" d="M2.11387 91.5432L1.46387 93.7228H0.651367L2.76387 86.8262H3.73887L5.85137 93.7228H5.00637L4.35637 91.5432H2.11387ZM3.51137 88.8431L4.11874 90.795H2.24387L2.86137 88.8106L2.86149 88.8101L2.86291 88.8043C2.95989 88.3835 3.05688 87.9627 3.15387 87.5744H3.18637C3.28387 87.9973 3.38137 88.3877 3.51137 88.8431Z" fill="#6f6d81"/>
<path d="M7.89888 93.1373C7.50888 93.1373 7.08638 92.9421 6.82638 92.7794L6.59888 93.4626C6.92388 93.6903 7.37888 93.8204 7.86638 93.8204C8.90638 93.8204 9.52388 93.2023 9.52388 92.324C9.52388 91.5758 9.13388 91.1529 8.35388 90.8275C7.76888 90.5998 7.50888 90.4046 7.50888 89.9817C7.50888 89.6239 7.76888 89.2986 8.25638 89.2986C8.67888 89.2986 9.00388 89.4938 9.16638 89.5913L9.36138 88.9407C9.10138 88.7455 8.71138 88.6154 8.25638 88.6154C7.31388 88.6154 6.72888 89.266 6.72888 90.0793C6.72888 90.6649 7.11888 91.1529 7.93138 91.4782C8.51638 91.7384 8.74388 91.9661 8.74388 92.389C8.74388 92.812 8.48388 93.1373 7.89888 93.1373Z" fill="#6f6d81"/>
<path d="M10.7264 92.7794C10.9864 92.9421 11.4089 93.1373 11.7989 93.1373C12.3839 93.1373 12.6439 92.812 12.6439 92.389C12.6439 91.9661 12.4164 91.7384 11.8314 91.4782C11.0189 91.1529 10.6289 90.6649 10.6289 90.0793C10.6289 89.266 11.2139 88.6154 12.1564 88.6154C12.6114 88.6154 13.0014 88.7455 13.2614 88.9407L13.0664 89.5913C12.9039 89.4938 12.5789 89.2986 12.1564 89.2986C11.6689 89.2986 11.4089 89.6239 11.4089 89.9817C11.4089 90.4046 11.6689 90.5998 12.2539 90.8275C13.0339 91.1529 13.4239 91.5758 13.4239 92.324C13.4239 93.2023 12.8064 93.8204 11.7664 93.8204C11.2789 93.8204 10.8239 93.6903 10.4989 93.4626L10.7264 92.7794Z" fill="#6f6d81"/>
<path fill-rule="evenodd" clip-rule="evenodd" d="M14.3664 91.283C14.3664 92.8445 15.3089 93.8204 16.5114 93.8204C17.5839 93.8204 18.7213 93.0071 18.7213 91.1854C18.7213 89.6889 17.8438 88.6479 16.5763 88.6479C15.3413 88.6479 14.3664 89.6239 14.3664 91.283ZM17.9088 91.1854C17.9088 92.324 17.3239 93.1373 16.5438 93.1373C15.7638 93.1373 15.1789 92.324 15.2114 91.2179C15.2114 90.2745 15.6338 89.2986 16.5763 89.2986C17.5189 89.2986 17.9088 90.3396 17.9088 91.1854Z" fill="#6f6d81"/>
<path d="M23.1739 93.5276C22.9789 93.6578 22.4914 93.8204 21.9064 93.8204C20.5739 93.8204 19.6964 92.8119 19.6964 91.283C19.6964 89.754 20.6389 88.6479 22.1014 88.6479C22.5889 88.6479 23.0114 88.7781 23.2389 88.9082L23.0439 89.5913C22.8489 89.4937 22.5564 89.3636 22.1014 89.3636C21.0939 89.3636 20.5414 90.2094 20.5414 91.2504C20.5414 92.389 21.1914 93.1047 22.1014 93.1047C22.5564 93.1047 22.8814 92.9746 23.1089 92.877L23.1739 93.5276Z" fill="#6f6d81"/>
<path d="M24.2139 87.2491C24.2139 87.5744 24.4414 87.8347 24.7339 87.8347C25.0589 87.8347 25.2539 87.5744 25.2539 87.2491C25.2539 86.9238 25.0589 86.6635 24.7339 86.6635C24.4414 86.6635 24.2139 86.9238 24.2139 87.2491Z" fill="#6f6d81"/>
<path d="M25.1564 88.7455H24.3439V93.6903H25.1564V88.7455Z" fill="#6f6d81"/>
<path fill-rule="evenodd" clip-rule="evenodd" d="M29.8688 92.5192C29.8688 92.9421 29.9013 93.365 29.9338 93.6903H29.2188L29.1539 93.0722H29.1213C28.8938 93.4626 28.4063 93.8204 27.7563 93.8204C26.8463 93.8204 26.3913 93.1047 26.3913 92.389C26.3913 91.1854 27.3664 90.5348 29.0563 90.5348V90.4372C29.0563 90.0143 28.9589 89.266 28.0488 89.2986C27.6263 89.2986 27.2038 89.4287 26.8789 89.6564L26.6838 89.0383C27.0413 88.7781 27.5938 88.6154 28.1463 88.6154C29.5113 88.6154 29.8363 89.6564 29.8363 90.6323V92.5192H29.8688ZM29.0888 91.1854C28.2113 91.1529 27.2038 91.348 27.2038 92.2915C27.2038 92.877 27.5613 93.1373 27.9513 93.1373C28.5364 93.1373 28.9263 92.7144 29.0563 92.324C29.0888 92.2264 29.0888 92.1288 29.0888 92.0312V91.1854Z" fill="#6f6d81"/>
<path d="M32.3714 88.713V87.5419L31.5914 87.8021V88.713H30.9089V89.3961H31.5914V92.0962C31.5914 92.6818 31.6889 93.1373 31.9164 93.3975C32.1114 93.6252 32.4039 93.7879 32.7939 93.7879C33.0864 93.7879 33.3464 93.7228 33.5089 93.6578L33.4764 92.9746C33.3464 93.0071 33.2164 93.0397 32.9889 93.0397C32.5339 93.0397 32.3714 92.6818 32.3714 92.0637V89.3961H33.5414V88.713H32.3714Z" fill="#6f6d81"/>
<path d="M35.0689 87.8347C34.7764 87.8347 34.5814 87.5744 34.5814 87.2491C34.5814 86.9238 34.7764 86.6635 35.1014 86.6635C35.4264 86.6635 35.6214 86.9238 35.6214 87.2491C35.6214 87.5744 35.3939 87.8347 35.0689 87.8347Z" fill="#6f6d81"/>
<path d="M34.6789 88.7455H35.4914V93.6903H34.6789V88.7455Z" fill="#6f6d81"/>
<path fill-rule="evenodd" clip-rule="evenodd" d="M38.9689 88.6479C37.7339 88.6479 36.7589 89.6239 36.7589 91.283C36.7589 92.8445 37.7014 93.8204 38.9039 93.8204C39.9439 93.8204 41.1139 93.0071 41.1139 91.1854C41.1139 89.6889 40.2364 88.6479 38.9689 88.6479ZM40.2689 91.1854C40.2689 92.324 39.6839 93.1373 38.9039 93.1373C38.1239 93.1373 37.5714 92.324 37.5714 91.2179C37.5714 90.2745 37.9939 89.2986 38.9364 89.2986C39.8789 89.2986 40.2689 90.3396 40.2689 91.1854Z" fill="#6f6d81"/>
<path d="M42.3488 90.0791C42.3488 89.5587 42.3488 89.1358 42.3163 88.7455H43.0313L43.0639 89.5588C43.2914 89.1034 43.8114 88.6479 44.5264 88.6479C45.1438 88.6479 46.1188 89.0708 46.1188 90.7625V93.7228H45.3063V90.8601C45.3063 90.0468 45.0463 89.3961 44.2663 89.3961C43.7463 89.3961 43.3238 89.8191 43.1938 90.307C43.1613 90.4371 43.1288 90.5998 43.1288 90.7299V93.7228H42.3163V90.0793L42.3488 90.0791Z" fill="#6f6d81"/>
<path d="M51.8064 93.8204C52.3914 93.8204 52.8789 93.6578 53.0739 93.5276L53.0089 92.877C52.7814 92.9746 52.4564 93.1047 52.0014 93.1047C51.0914 93.1047 50.4414 92.389 50.4414 91.2504C50.4414 90.2094 50.9939 89.3636 52.0014 89.3636C52.4564 89.3636 52.7489 89.4937 52.9439 89.5913L53.1389 88.9082C52.9114 88.7781 52.4889 88.6479 52.0014 88.6479C50.5389 88.6479 49.5964 89.754 49.5964 91.283C49.5964 92.8119 50.4739 93.8204 51.8064 93.8204Z" fill="#6f6d81"/>
<path fill-rule="evenodd" clip-rule="evenodd" d="M57.3964 92.5192C57.3964 92.9421 57.4289 93.365 57.4614 93.6903H56.7464L56.6814 93.0722H56.6489C56.4214 93.4626 55.9339 93.8204 55.2839 93.8204C54.3739 93.8204 53.9189 93.1047 53.9189 92.389C53.9189 91.1854 54.8939 90.5348 56.5839 90.5348V90.4372C56.5839 90.0143 56.4864 89.266 55.5764 89.2986C55.1539 89.2986 54.7314 89.4287 54.4064 89.6564L54.2114 89.0383C54.5689 88.7781 55.1214 88.6154 55.6739 88.6154C57.0389 88.6154 57.3639 89.6564 57.3639 90.6323V92.5192H57.3964ZM56.5839 91.1854C55.7064 91.1529 54.6989 91.348 54.6989 92.2915C54.6989 92.877 55.0564 93.1373 55.4464 93.1373C56.0314 93.1373 56.4214 92.7144 56.5514 92.324C56.5839 92.2264 56.5839 92.1288 56.5839 92.0312V91.1854Z" fill="#6f6d81"/>
<path d="M58.9238 90.0793H58.8913V93.7228H59.7038V90.7299C59.7038 90.5998 59.7363 90.4371 59.7688 90.307C59.8988 89.8191 60.3213 89.3961 60.8414 89.3961C61.6213 89.3961 61.8813 90.0468 61.8813 90.8601V93.7228H62.6938V90.7625C62.6938 89.0708 61.7188 88.6479 61.1013 88.6479C60.3864 88.6479 59.8663 89.1034 59.6389 89.5588L59.6063 88.7455H58.8913C58.9238 89.1358 58.9238 89.5589 58.9238 90.0793Z" fill="#6f6d81"/>
<path fill-rule="evenodd" clip-rule="evenodd" d="M67.4063 92.5192C67.4063 92.9421 67.4388 93.365 67.4713 93.6903H66.7563L66.6913 93.0722H66.6588C66.4314 93.4626 65.9438 93.8204 65.2938 93.8204C64.3838 93.8204 63.9288 93.1047 63.9288 92.389C63.9288 91.1854 64.9038 90.5348 66.5938 90.5348V90.4372C66.5938 90.0143 66.4963 89.266 65.5863 89.2986C65.1638 89.2986 64.7413 89.4287 64.4163 89.6564L64.2213 89.0383C64.5788 88.7781 65.1313 88.6154 65.6838 88.6154C67.0488 88.6154 67.3738 89.6564 67.3738 90.6323V92.5192H67.4063ZM66.6264 91.1854C65.7488 91.1529 64.7413 91.348 64.7413 92.2915C64.7413 92.877 65.0989 93.1373 65.4889 93.1373C66.0739 93.1373 66.4639 92.7144 66.5938 92.324C66.6264 92.2264 66.6264 92.1288 66.6264 92.0312V91.1854Z" fill="#6f6d81"/>
<path fill-rule="evenodd" clip-rule="evenodd" d="M72.7689 92.4216V86.4358H71.9564V89.3962H71.9239C71.7614 89.0058 71.2739 88.6479 70.5914 88.6479C69.5189 88.6479 68.6089 89.6564 68.6089 91.3155C68.6089 92.812 69.4539 93.8204 70.5264 93.8204C71.2414 93.8204 71.7614 93.3975 72.0214 92.8445H72.0539L72.0864 93.6903H72.8014C72.7689 93.365 72.7689 92.877 72.7689 92.4216ZM71.9239 90.3721C71.9564 90.5022 71.9564 90.6324 71.9564 90.7625H71.9889V91.6408C71.9889 91.7709 71.9889 91.9011 71.9564 92.0312C71.7939 92.6818 71.3064 93.1047 70.7539 93.1047C69.8764 93.1047 69.4214 92.2589 69.4214 91.2505C69.4214 90.1444 69.9089 89.3311 70.7539 89.3311C71.3714 89.3311 71.7939 89.8191 71.9239 90.3721Z" fill="#6f6d81"/>
<path d="M74.7514 87.8347C74.4589 87.8347 74.2314 87.5744 74.2314 87.2491C74.2314 86.9238 74.4589 86.6635 74.7514 86.6635C75.0764 86.6635 75.2714 86.9238 75.2714 87.2491C75.2714 87.5744 75.0764 87.8347 74.7514 87.8347Z" fill="#6f6d81"/>
<path d="M74.3614 88.7455H75.1739V93.6903H74.3614V88.7455Z" fill="#6f6d81"/>
<path fill-rule="evenodd" clip-rule="evenodd" d="M78.7489 93.1047C77.9364 93.1047 77.2214 92.5842 77.2214 91.3806L80.3739 91.4131C80.4064 91.3155 80.4064 91.1854 80.4064 90.9902C80.4064 90.0793 80.0489 88.6479 78.5864 88.6479C77.2864 88.6479 76.4739 89.8191 76.4739 91.3155C76.4739 92.8119 77.2864 93.8204 78.6514 93.8204C79.3664 93.8204 79.8539 93.6252 80.1464 93.4951L79.9839 92.8445C79.6914 92.9746 79.3339 93.1047 78.7489 93.1047ZM78.4564 89.266C79.3664 89.266 79.5614 90.1769 79.5614 90.7299H77.2214C77.2864 90.1118 77.6439 89.266 78.4564 89.266Z" fill="#6f6d81"/>
<path d="M81.5439 88.7455H82.2589L82.2914 89.5588C82.5189 89.1034 83.0389 88.6479 83.7539 88.6479C84.3714 88.6479 85.3464 89.0708 85.3464 90.7625V93.7228H84.5339V90.8601C84.5339 90.0468 84.2739 89.3961 83.4939 89.3961C82.9739 89.3961 82.5514 89.8191 82.4214 90.307C82.3889 90.4371 82.3564 90.5998 82.3564 90.7299V93.7228H81.5439V90.0793H81.5764C81.5764 89.5588 81.5764 89.1359 81.5439 88.7455Z" fill="#6f6d81"/>
<path d="M87.6214 88.7455H86.9064C86.9389 89.1359 86.9389 89.5588 86.9389 90.0793H86.9064V93.7228H87.7189V90.7299C87.7189 90.5998 87.7514 90.4371 87.7839 90.307C87.9139 89.8191 88.3364 89.3961 88.8564 89.3961C89.6364 89.3961 89.8964 90.0468 89.8964 90.8601V93.7228H90.7089V90.7625C90.7089 89.0708 89.7339 88.6479 89.1164 88.6479C88.4014 88.6479 87.8814 89.1034 87.6539 89.5588L87.6214 88.7455Z" fill="#6f6d81"/>
<path fill-rule="evenodd" clip-rule="evenodd" d="M92.7564 91.3806C92.7564 92.5842 93.4714 93.1047 94.2839 93.1047C94.8689 93.1047 95.2264 92.9746 95.5189 92.8445L95.6814 93.4951C95.3889 93.6252 94.9014 93.8204 94.1863 93.8204C92.8213 93.8204 92.0089 92.8119 92.0089 91.3155C92.0089 89.8191 92.8214 88.6479 94.1214 88.6479C95.5839 88.6479 95.9413 90.0793 95.9413 90.9902C95.9413 91.1853 95.9413 91.3155 95.9089 91.4131L92.7564 91.3806ZM95.0964 90.7299C95.0964 90.1769 94.9013 89.266 93.9913 89.266C93.1788 89.266 92.8214 90.1118 92.7564 90.7299H95.0964Z" fill="#6f6d81"/>
<path fill-rule="evenodd" clip-rule="evenodd" d="M103.156 92.4216V86.4358H102.344V89.3962H102.311C102.149 89.0058 101.661 88.6479 100.979 88.6479C99.9063 88.6479 98.9964 89.6564 98.9964 91.3155C98.9964 92.812 99.8414 93.8204 100.914 93.8204C101.629 93.8204 102.149 93.3975 102.409 92.8445H102.441L102.474 93.6903H103.189C103.156 93.365 103.156 92.877 103.156 92.4216ZM102.311 90.3721C102.344 90.5022 102.344 90.6324 102.344 90.7625H102.376V91.6408C102.376 91.7709 102.376 91.9011 102.344 92.0312C102.181 92.6818 101.694 93.1047 101.141 93.1047C100.264 93.1047 99.8089 92.2589 99.8089 91.2505C99.8089 90.1444 100.296 89.3311 101.141 89.3311C101.759 89.3311 102.181 89.8191 102.311 90.3721Z" fill="#6f6d81"/>
<path fill-rule="evenodd" clip-rule="evenodd" d="M105.204 91.3806C105.236 92.5842 105.919 93.1047 106.731 93.1047C107.316 93.1047 107.674 92.9746 107.966 92.8445L108.129 93.4951C107.836 93.6252 107.349 93.8204 106.634 93.8204C105.269 93.8204 104.456 92.8119 104.456 91.3155C104.456 89.8191 105.269 88.6479 106.569 88.6479C108.031 88.6479 108.389 90.0793 108.389 90.9902C108.389 91.1854 108.389 91.3155 108.356 91.4131L105.204 91.3806ZM107.576 90.7299C107.576 90.1769 107.381 89.266 106.471 89.266C105.659 89.266 105.301 90.1118 105.236 90.7299H107.576Z" fill="#6f6d81"/>
<path d="M110.534 93.1373C110.144 93.1373 109.721 92.9421 109.461 92.7794L109.234 93.4626C109.559 93.6903 110.014 93.8204 110.501 93.8204C111.541 93.8204 112.159 93.2023 112.159 92.324C112.159 91.5758 111.769 91.1529 110.989 90.8275C110.404 90.5998 110.144 90.4046 110.144 89.9817C110.144 89.6239 110.404 89.2986 110.891 89.2986C111.314 89.2986 111.639 89.4938 111.801 89.5913L111.996 88.9407C111.736 88.7455 111.346 88.6154 110.891 88.6154C109.949 88.6154 109.364 89.266 109.364 90.0793C109.364 90.6649 109.754 91.1529 110.566 91.4782C111.151 91.7384 111.379 91.9661 111.379 92.389C111.379 92.812 111.119 93.1373 110.534 93.1373Z" fill="#6f6d81"/>
<path fill-rule="evenodd" clip-rule="evenodd" d="M118.789 92.5192C118.789 92.9421 118.821 93.365 118.854 93.6903H118.139L118.074 93.0722H118.041C117.814 93.4626 117.326 93.8204 116.676 93.8204C115.766 93.8204 115.311 93.1047 115.311 92.389C115.311 91.1854 116.286 90.5348 117.976 90.5348V90.4372C117.976 90.0143 117.879 89.266 116.969 89.2986C116.546 89.2986 116.124 89.4287 115.799 89.6564L115.604 89.0383C115.961 88.7781 116.514 88.6154 117.066 88.6154C118.431 88.6154 118.756 89.6564 118.756 90.6323V92.5192H118.789ZM118.009 91.1854C117.131 91.1529 116.124 91.348 116.124 92.2915C116.124 92.877 116.481 93.1373 116.871 93.1373C117.456 93.1373 117.846 92.7144 117.976 92.324C118.009 92.2264 118.009 92.1288 118.009 92.0312V91.1854Z" fill="#6f6d81"/>
<path fill-rule="evenodd" clip-rule="evenodd" d="M123.469 95.2518C123.891 94.7964 124.119 94.1132 124.119 92.9746V90.0143C124.119 89.3962 124.119 89.0058 124.151 88.6479H123.436L123.404 89.3962C123.176 89.0058 122.786 88.5503 122.006 88.5503C120.966 88.5503 119.991 89.4937 119.991 91.1854C119.991 92.5842 120.771 93.6252 121.876 93.6252C122.559 93.6252 123.034 93.2991 123.274 92.8732V93.365C123.274 94.6337 122.656 95.1217 121.844 95.1217C121.291 95.1217 120.836 94.959 120.544 94.7313L120.349 95.4145C120.706 95.6747 121.324 95.8374 121.844 95.8374C122.396 95.8374 123.014 95.7072 123.469 95.2518ZM123.274 90.307C123.306 90.4046 123.306 90.5673 123.306 90.6974H123.339V91.5758C123.339 91.7384 123.306 91.9336 123.274 92.0637C123.111 92.6493 122.656 93.0071 122.136 93.0071C121.259 93.0071 120.804 92.1939 120.804 91.2179C120.804 90.0468 121.356 89.3311 122.136 89.3311C122.754 89.3311 123.111 89.7865 123.274 90.307Z" fill="#6f6d81"/>
<path fill-rule="evenodd" clip-rule="evenodd" d="M126.166 91.3806C126.166 92.5842 126.881 93.1047 127.694 93.1047C128.279 93.1047 128.636 92.9746 128.929 92.8445L129.091 93.4951C128.799 93.6252 128.311 93.8204 127.596 93.8204C126.231 93.8204 125.419 92.8119 125.419 91.3155C125.419 89.8191 126.231 88.6479 127.531 88.6479C128.994 88.6479 129.351 90.0793 129.351 90.9902C129.351 91.1854 129.351 91.3155 129.319 91.4131L126.166 91.3806ZM128.539 90.7299C128.539 90.1769 128.344 89.266 127.434 89.266C126.589 89.266 126.264 90.1118 126.199 90.7299H128.539Z" fill="#6f6d81"/>
<path d="M130.521 88.7455C130.554 89.1358 130.554 89.5585 130.554 90.0788V90.0793H130.521V93.7228H131.334V90.7299C131.334 90.5998 131.366 90.4371 131.399 90.307C131.529 89.8191 131.951 89.3961 132.471 89.3961C133.251 89.3961 133.511 90.0468 133.511 90.8601V93.7228H134.324V90.7625C134.324 89.0708 133.349 88.6479 132.731 88.6479C132.016 88.6479 131.496 89.1034 131.269 89.5588L131.236 88.7455H130.521Z" fill="#6f6d81"/>
<path d="M139.069 93.5276C138.874 93.6578 138.386 93.8204 137.801 93.8204C136.469 93.8204 135.591 92.8119 135.591 91.283C135.591 89.754 136.534 88.6479 137.996 88.6479C138.484 88.6479 138.906 88.7781 139.134 88.9082L138.939 89.5913C138.744 89.4937 138.451 89.3636 137.996 89.3636C136.989 89.3636 136.436 90.2094 136.436 91.2504C136.436 92.389 137.086 93.1047 137.996 93.1047C138.451 93.1047 138.776 92.9746 139.004 92.877L139.069 93.5276Z" fill="#6f6d81"/>
<path fill-rule="evenodd" clip-rule="evenodd" d="M142.221 93.1047C141.409 93.1047 140.694 92.5842 140.694 91.3806L143.846 91.4131C143.879 91.3155 143.879 91.1855 143.879 90.9904C143.879 90.0795 143.521 88.6479 142.059 88.6479C140.759 88.6479 139.946 89.8191 139.946 91.3155C139.946 92.8119 140.759 93.8204 142.124 93.8204C142.839 93.8204 143.326 93.6252 143.619 93.4951L143.456 92.8445C143.164 92.9746 142.806 93.1047 142.221 93.1047ZM141.961 89.266C142.871 89.266 143.066 90.1769 143.066 90.7299H140.726C140.791 90.1118 141.116 89.266 141.961 89.266Z" fill="#6f6d81"/>
<path d="M144.984 92.7794C145.244 92.9421 145.666 93.1373 146.056 93.1373C146.641 93.1373 146.901 92.812 146.901 92.389C146.901 91.9661 146.674 91.7384 146.089 91.4782C145.276 91.1529 144.886 90.6649 144.886 90.0793C144.886 89.266 145.471 88.6154 146.414 88.6154C146.869 88.6154 147.259 88.7455 147.519 88.9407L147.324 89.5913C147.161 89.4938 146.836 89.2986 146.414 89.2986C145.926 89.2986 145.666 89.6239 145.666 89.9817C145.666 90.4046 145.926 90.5998 146.511 90.8275C147.291 91.1529 147.681 91.5758 147.681 92.324C147.681 93.2023 147.064 93.8204 146.024 93.8204C145.536 93.8204 145.081 93.6903 144.756 93.4626L144.984 92.7794Z" fill="#6f6d81"/>
<path fill-rule="evenodd" clip-rule="evenodd" d="M154.994 92.4216V86.4358H154.181V89.3962H154.149C153.986 89.0058 153.499 88.6479 152.816 88.6479C151.744 88.6479 150.834 89.6564 150.834 91.3155C150.834 92.812 151.679 93.8204 152.751 93.8204C153.466 93.8204 153.986 93.3975 154.246 92.8445H154.279L154.311 93.6903H155.026C154.994 93.365 154.994 92.877 154.994 92.4216ZM154.149 90.3721C154.181 90.5022 154.181 90.6324 154.181 90.7625H154.214V91.6408C154.214 91.7709 154.214 91.9011 154.181 92.0312C154.019 92.6818 153.531 93.1047 152.979 93.1047C152.101 93.1047 151.646 92.2589 151.646 91.2505C151.646 90.1444 152.134 89.3311 152.979 89.3311C153.596 89.3311 154.019 89.8191 154.149 90.3721Z" fill="#6f6d81"/>
<path fill-rule="evenodd" clip-rule="evenodd" d="M157.041 91.3806C157.041 92.5842 157.756 93.1047 158.569 93.1047C159.154 93.1047 159.511 92.9746 159.804 92.8445L159.966 93.4951C159.674 93.6252 159.186 93.8204 158.471 93.8204C157.106 93.8204 156.294 92.8119 156.294 91.3155C156.294 89.8191 157.106 88.6479 158.406 88.6479C159.869 88.6479 160.226 90.0793 160.226 90.9902C160.226 91.1853 160.226 91.3155 160.194 91.4131L157.041 91.3806ZM159.414 90.7299C159.414 90.1769 159.219 89.266 158.309 89.266C157.496 89.266 157.139 90.1118 157.074 90.7299H159.414Z" fill="#6f6d81"/>
<path d="M164.809 91.5107L163.931 88.7455H163.086L164.776 93.6903H165.556L167.311 88.7455H166.466L165.589 91.5107C165.426 91.9661 165.296 92.3565 165.199 92.7794H165.166C165.154 92.7311 165.142 92.6823 165.13 92.6331C165.044 92.2839 164.951 91.9097 164.809 91.5107Z" fill="#6f6d81"/>
<path fill-rule="evenodd" clip-rule="evenodd" d="M167.929 91.283C167.929 89.6239 168.904 88.6479 170.139 88.6479C171.406 88.6479 172.284 89.6889 172.284 91.1854C172.316 93.0071 171.146 93.8204 170.074 93.8204C168.871 93.8204 167.929 92.8445 167.929 91.283ZM170.106 93.1373C170.886 93.1373 171.471 92.324 171.471 91.1854C171.471 90.3396 171.081 89.2986 170.139 89.2986C169.196 89.2986 168.774 90.2745 168.774 91.2179C168.774 92.324 169.326 93.1373 170.106 93.1373Z" fill="#6f6d81"/>
<path d="M174.819 91.6733L173.844 88.7455H172.934L174.591 93.3324C174.656 93.43 174.656 93.5276 174.656 93.5602C174.656 93.6078 174.639 93.6554 174.617 93.7158C174.609 93.7379 174.6 93.7617 174.591 93.7879C174.396 94.2433 174.136 94.6012 173.909 94.7964C173.649 95.0566 173.389 95.1867 173.194 95.2518L173.389 96C173.616 95.9349 174.006 95.8048 174.396 95.4145C174.949 94.8614 175.339 93.9831 175.924 92.2914L177.126 88.7455H176.281L175.404 91.6408C175.331 91.8423 175.278 92.054 175.229 92.2529C175.19 92.4073 175.154 92.5539 175.111 92.6818C175.046 92.389 174.949 91.9987 174.819 91.6733Z" fill="#6f6d81"/>
<path fill-rule="evenodd" clip-rule="evenodd" d="M181.286 92.5192C181.286 92.9421 181.319 93.365 181.351 93.6903H180.636L180.571 93.0722H180.506C180.279 93.4626 179.791 93.8204 179.141 93.8204C178.231 93.8204 177.776 93.1047 177.776 92.389C177.776 91.1854 178.751 90.5348 180.441 90.5348V90.4372C180.441 90.0143 180.344 89.266 179.434 89.2986C179.011 89.2986 178.589 89.4287 178.264 89.6564L178.069 89.0383C178.426 88.7781 178.979 88.6154 179.531 88.6154C180.896 88.6154 181.221 89.6564 181.221 90.6323V92.5192H181.286ZM180.474 91.1854C179.596 91.1529 178.589 91.348 178.589 92.2915C178.589 92.877 178.946 93.1373 179.336 93.1373C179.921 93.1373 180.311 92.7144 180.441 92.324C180.474 92.2264 180.474 92.1288 180.474 92.0312V91.1854Z" fill="#6f6d81"/>
<path fill-rule="evenodd" clip-rule="evenodd" d="M185.966 95.2518C186.389 94.7964 186.616 94.1132 186.616 92.9746H186.551V90.0143C186.551 89.3962 186.551 89.0058 186.584 88.6479H185.869L185.836 89.3962C185.641 89.0058 185.219 88.5503 184.439 88.5503C183.399 88.5503 182.424 89.4937 182.424 91.1854C182.424 92.5842 183.204 93.6252 184.309 93.6252C185.024 93.6252 185.511 93.2674 185.739 92.812H185.771V93.365C185.771 94.6337 185.154 95.1217 184.341 95.1217C183.789 95.1217 183.334 94.959 183.041 94.7313L182.846 95.4145C183.204 95.6747 183.821 95.8374 184.341 95.8374C184.894 95.8374 185.511 95.7072 185.966 95.2518ZM185.771 90.307C185.804 90.4046 185.804 90.5673 185.804 90.6974H185.836V91.5758C185.836 91.7384 185.804 91.9336 185.771 92.0637C185.609 92.6493 185.154 93.0071 184.634 93.0071C183.756 93.0071 183.301 92.1939 183.301 91.2179C183.301 90.0468 183.854 89.3311 184.634 89.3311C185.251 89.3311 185.609 89.7865 185.771 90.307Z" fill="#6f6d81"/>
<path fill-rule="evenodd" clip-rule="evenodd" d="M188.631 91.3806C188.631 92.5842 189.346 93.1047 190.159 93.1047C190.744 93.1047 191.101 92.9746 191.394 92.8445L191.556 93.4951C191.264 93.6252 190.776 93.8204 190.061 93.8204C188.696 93.8204 187.884 92.8119 187.884 91.3155C187.884 89.8191 188.696 88.6479 189.996 88.6479C191.459 88.6479 191.816 90.0793 191.816 90.9902C191.816 91.1854 191.816 91.3155 191.784 91.4131L188.631 91.3806ZM191.004 90.7299C191.004 90.1769 190.809 89.266 189.899 89.266C189.054 89.266 188.729 90.1118 188.664 90.7299H191.004Z" fill="#6f6d81"/>
<path d="M193.994 93.1373C193.604 93.1373 193.181 92.9421 192.921 92.7794L192.726 93.4626C193.051 93.6903 193.506 93.8204 193.994 93.8204C195.034 93.8204 195.651 93.2023 195.651 92.324C195.651 91.5758 195.261 91.1529 194.481 90.8275C193.896 90.5998 193.636 90.4046 193.636 89.9817C193.636 89.6239 193.896 89.2986 194.384 89.2986C194.806 89.2986 195.131 89.4938 195.294 89.5913L195.489 88.9407C195.229 88.7455 194.839 88.6154 194.384 88.6154C193.441 88.6154 192.856 89.266 192.856 90.0793C192.856 90.6649 193.214 91.1529 194.026 91.4782C194.611 91.7384 194.839 91.9661 194.839 92.389C194.839 92.812 194.579 93.1373 193.994 93.1373Z" fill="#6f6d81"/>
</g>
<defs>
<clipPath id="clip0">
<rect width="195" height="96" fill="#6f6d81" transform="translate(0.651367)"/>
</clipPath>
</defs>
</svg>
