<svg width="228" height="24" viewBox="0 0 228 24" fill="none" xmlns="http://www.w3.org/2000/svg">
<rect width="38" height="24" rx="2" fill="#243C94"/>
<g clip-path="url(#clip0)">
<path d="M30.9777 8.33154H29.2488C28.7157 8.33154 28.3122 8.48184 28.0817 9.01469L24.7678 16.5293H27.1164C27.1164 16.5293 27.5054 15.5182 27.5918 15.2996C27.8512 15.2996 30.1277 15.2996 30.4446 15.2996C30.5167 15.5866 30.7184 16.5293 30.7184 16.5293H32.7932L30.9777 8.33154ZM28.2258 13.6191C28.4131 13.1409 29.1191 11.3237 29.1191 11.3237C29.1047 11.3511 29.3064 10.8455 29.4217 10.5449L29.5657 11.2554C29.5657 11.2554 29.998 13.2092 30.0844 13.6191C29.7242 13.6191 28.658 13.6191 28.2258 13.6191Z" fill="white"/>
<path d="M25.2577 8.52285C24.811 8.35889 24.1195 8.18127 23.255 8.18127C21.0505 8.18127 19.4944 9.28797 19.48 10.8865C19.4656 12.0615 20.5894 12.7174 21.4395 13.1136C22.304 13.5098 22.6066 13.7694 22.5922 14.1247C22.5922 14.6712 21.9006 14.9308 21.2522 14.9308C20.3589 14.9308 19.8834 14.8078 19.1486 14.5072L18.8605 14.3706L18.5435 16.2014C19.0622 16.4337 20.0275 16.625 21.0361 16.6386C23.3846 16.6386 24.9119 15.5456 24.9263 13.8377C24.9407 12.9086 24.3356 12.1982 23.0532 11.6107C22.2752 11.2281 21.7997 10.9822 21.7997 10.5996C21.7997 10.258 22.2032 9.88914 23.0821 9.88914C23.8169 9.87548 24.3356 10.0394 24.7534 10.2034L24.9551 10.299L25.2577 8.52285Z" fill="white"/>
<path d="M14.9126 16.5294L16.3102 8.31793H18.5435L17.1459 16.5294H14.9126Z" fill="white"/>
<path d="M13.0396 8.33154L10.8639 13.9197L10.6334 12.7857C10.1579 11.597 9.00526 10.5039 7.70853 9.99842L9.53837 16.5156H11.9013L15.4169 8.33154H13.0396Z" fill="white"/>
<path d="M8.83237 8.33142H5.23032L5.20151 8.49538C7.67971 9.08288 9.71127 10.3672 10.6334 12.7855L9.84094 9.01457C9.71127 8.49538 9.32225 8.34508 8.83237 8.33142Z" fill="#F5B418"/>
</g>
<rect x="42" width="38" height="24" rx="2" fill="#33404F"/>
<ellipse cx="65.6667" cy="12" rx="7.33333" ry="7.33333" fill="#F79E1B"/>
<ellipse cx="56.3333" cy="12" rx="7.33333" ry="7.33333" fill="#EB001B"/>
<path d="M61 17.6571C62.6287 16.3121 63.6667 14.2773 63.6667 12C63.6667 9.72276 62.6287 7.68795 61 6.3429C59.3713 7.68795 58.3333 9.72276 58.3333 12C58.3333 14.2773 59.3713 16.3121 61 17.6571Z" fill="#FF5F00"/>
<rect x="84" width="38" height="24" rx="2" fill="#F5F5F5"/>
<mask id="mask0" mask-type="alpha" maskUnits="userSpaceOnUse" x="84" y="0" width="38" height="24">
<rect x="84" width="38" height="24" rx="2" fill="white"/>
</mask>
<g mask="url(#mask0)">
<path d="M122 13C122 13 111.515 20.5981 92.3125 24H122V13Z" fill="#F58025"/>
</g>
<path d="M88.1756 9.6604H86.6667V14.8489H88.1675C88.9657 14.8489 89.542 14.6644 90.0491 14.2494C90.6498 13.7602 91.0061 13.0205 91.0061 12.2566C91.0061 10.727 89.8434 9.6604 88.1756 9.6604ZM89.3771 13.5578C89.0533 13.8444 88.6338 13.9707 87.9699 13.9707H87.693V10.5385H87.9699C88.6338 10.5385 89.037 10.6548 89.3771 10.9575C89.7334 11.2683 89.9472 11.7514 89.9472 12.2486C89.9472 12.7498 89.7334 13.247 89.3771 13.5578Z" fill="black"/>
<path d="M92.5069 9.6604H91.4786V14.8489H92.5069V9.6604Z" fill="black"/>
<path d="M95.0198 11.6511C94.4028 11.4266 94.2216 11.2782 94.2216 10.9976C94.2216 10.6708 94.5433 10.4222 94.9872 10.4222C95.2947 10.4222 95.5493 10.5465 95.816 10.8432L96.3536 10.1495C95.9117 9.76862 95.3823 9.57416 94.804 9.57416C93.8713 9.57416 93.1606 10.2117 93.1606 11.0617C93.1606 11.7774 93.4925 12.1423 94.4578 12.4851C94.861 12.6255 95.0646 12.7177 95.1685 12.7799C95.3741 12.9122 95.476 13.0986 95.476 13.3171C95.476 13.7382 95.1359 14.0489 94.6777 14.0489C94.1869 14.0489 93.7919 13.8083 93.5557 13.3572L92.8918 13.9867C93.3663 14.6704 93.9344 14.9751 94.7164 14.9751C95.7855 14.9751 96.5349 14.2754 96.5349 13.271C96.5369 12.445 96.1907 12.0722 95.0198 11.6511Z" fill="black"/>
<path d="M96.8607 12.2586C96.8607 13.7843 98.0764 14.9671 99.6424 14.9671C100.084 14.9671 100.463 14.8809 100.931 14.6644V13.4735C100.52 13.8785 100.156 14.0409 99.6892 14.0409C98.6547 14.0409 97.9196 13.3011 97.9196 12.2506C97.9196 11.2542 98.6771 10.4683 99.6424 10.4683C100.133 10.4683 100.504 10.6408 100.931 11.0517V9.86088C100.479 9.63634 100.109 9.54211 99.6668 9.54211C98.109 9.54211 96.8607 10.749 96.8607 12.2586Z" fill="black"/>
<path d="M109.083 13.1468L107.678 9.6604H106.556L108.792 14.9832H109.346L111.622 9.6604H110.508L109.083 13.1468Z" fill="black"/>
<path d="M112.087 14.8489H115.003V13.9707H113.115V12.5694H114.933V11.6913H113.115V10.5385H115.003V9.6604H112.087V14.8489Z" fill="black"/>
<path d="M119.073 11.1921C119.073 10.2197 118.393 9.6604 117.208 9.6604H115.683V14.8489H116.709V12.7638H116.844L118.267 14.8489H119.532L117.872 12.6636C118.648 12.5072 119.073 11.986 119.073 11.1921ZM117.011 12.0501H116.711V10.4784H117.027C117.666 10.4784 118.014 10.743 118.014 11.2482C118.016 11.7675 117.668 12.0501 117.011 12.0501Z" fill="black"/>
<path d="M106.863 12.2586C106.863 13.7823 105.609 15.0172 104.061 15.0172C102.514 15.0172 101.259 13.7823 101.259 12.2586C101.259 10.735 102.514 9.5 104.061 9.5C105.609 9.498 106.863 10.735 106.863 12.2586Z" fill="#F58025"/>
<rect x="126" width="38" height="24" rx="2" fill="#1B76D1"/>
<path d="M134.966 13.3367L134.092 11.0751C134.067 11.0082 134.035 10.8934 133.996 10.7309C133.957 10.5683 133.916 10.3691 133.874 10.1332C133.827 10.3595 133.783 10.5635 133.74 10.7452C133.698 10.9237 133.666 11.0433 133.644 11.1038L132.803 13.3367H134.966ZM130 16L132.968 9H134.875L137.886 16H135.989L135.355 14.513H132.334L131.79 16H130Z" fill="white"/>
<path d="M138.03 16L139.218 9H140.965L142.468 13.1216C142.5 13.2077 142.534 13.3336 142.569 13.4993C142.608 13.6651 142.644 13.8547 142.676 14.0683C142.704 13.8515 142.736 13.6587 142.772 13.4898C142.807 13.3176 142.841 13.1917 142.873 13.112L144.402 9H146.123L147.317 16H145.734L145.164 11.778C145.121 11.4656 145.093 11.2297 145.079 11.0704C145.065 10.911 145.057 10.7628 145.057 10.6257C145.057 10.5524 145.057 10.4982 145.057 10.4631C145.061 10.4249 145.065 10.3914 145.068 10.3627C145.015 10.6368 144.963 10.8743 144.914 11.0751C144.867 11.2728 144.825 11.4226 144.786 11.5246L143.134 16H142.196L140.571 11.5246C140.557 11.4832 140.525 11.3684 140.475 11.1803C140.429 10.9923 140.363 10.7181 140.278 10.3579V10.5635C140.278 10.8887 140.246 11.2871 140.182 11.7589L140.177 11.778L139.612 16H138.03Z" fill="white"/>
<path d="M149.07 16V9H153.663V10.2623H150.738V11.7015H153.663V12.9734H150.738V14.7281H153.663V16H149.07Z" fill="white"/>
<path d="M156.689 10.8313C156.774 10.962 156.842 11.0783 156.891 11.1803C156.941 11.2791 156.985 11.3843 157.025 11.4959C157.071 11.3811 157.122 11.268 157.179 11.1564C157.236 11.0449 157.305 10.9269 157.387 10.8026L158.49 9H160.259L157.93 12.3374L160.333 16H158.532L157.376 14.0587C157.305 13.9408 157.241 13.8181 157.184 13.6906C157.131 13.5631 157.081 13.4292 157.035 13.2889C156.975 13.4547 156.914 13.6029 156.854 13.7336C156.794 13.8643 156.735 13.9775 156.678 14.0731L155.522 16H153.732L156.14 12.3374L153.796 9H155.575L156.689 10.8313Z" fill="white"/>
<defs>
<clipPath id="clip0">
<rect width="28" height="8.68966" fill="white" transform="translate(5 8)"/>
</clipPath>
</defs>
</svg>
