<svg width="333" height="278" viewBox="0 0 333 278" fill="none" xmlns="http://www.w3.org/2000/svg">
<path d="M168.987 2.51666L168.985 2.51723L157.445 5.48842L40.9969 35.469L29.4566 38.4401L29.4544 38.4407C25.5746 39.4442 22.251 41.9435 20.2134 45.3914C18.1758 48.8395 17.5912 52.9541 18.5883 56.8324L18.5889 56.8345L60.8387 220.402L60.8392 220.404C61.845 224.28 64.3495 227.599 67.8019 229.632C71.2543 231.666 75.3731 232.249 79.2551 231.254L79.2576 231.253L79.2825 231.247L79.2827 231.247L218.76 195.337L218.761 195.337L218.786 195.33L218.788 195.33C222.668 194.326 225.991 191.827 228.029 188.379C230.066 184.931 230.651 180.817 229.654 176.938L229.653 176.936L187.403 13.3684L187.403 13.3663C186.397 9.49036 183.893 6.17203 180.44 4.13848C176.988 2.105 172.869 1.5219 168.987 2.51666Z" fill="white" stroke="#CED3DE" stroke-width="4"/>
<path d="M160.77 57.4213L90.2114 75.5873C89.4233 75.7902 88.5868 75.6722 87.8858 75.2593C87.1849 74.8465 86.6769 74.1725 86.4737 73.3857C86.2705 72.599 86.3886 71.7638 86.8022 71.064C87.2157 70.3642 87.8908 69.8571 88.6788 69.6542L159.237 51.4882C160.025 51.2862 160.861 51.4046 161.561 51.8175C162.262 52.2305 162.769 52.9041 162.972 53.6905C163.175 54.4768 163.058 55.3114 162.645 56.011C162.232 56.7106 161.557 57.2179 160.77 57.4213Z" fill="#CED3DE"/>
<path d="M175.613 64.278L92.7978 85.5996C92.0097 85.8025 91.1732 85.6845 90.4722 85.2716C89.7713 84.8588 89.2633 84.1848 89.0601 83.3981C88.8569 82.6113 88.975 81.7761 89.3886 81.0763C89.8021 80.3765 90.4772 79.8694 91.2652 79.6665L174.081 58.3449C174.869 58.142 175.705 58.2599 176.406 58.6728C177.107 59.0857 177.615 59.7596 177.818 60.5464C178.022 61.3332 177.904 62.1683 177.49 62.8681C177.076 63.5679 176.401 64.0751 175.613 64.278Z" fill="#CED3DE"/>
<path d="M172.359 102.291L101.801 120.457C101.41 120.557 101.004 120.58 100.605 120.524C100.206 120.468 99.8222 120.333 99.4752 120.129C99.1281 119.924 98.8248 119.654 98.5825 119.332C98.3402 119.011 98.1637 118.645 98.063 118.255C97.9624 117.866 97.9396 117.46 97.996 117.062C98.0523 116.663 98.1867 116.28 98.3915 115.934C98.5963 115.587 98.8674 115.284 99.1894 115.042C99.5114 114.8 99.878 114.624 100.268 114.524L170.827 96.3578C171.217 96.2573 171.623 96.2346 172.022 96.2909C172.421 96.3471 172.805 96.4813 173.152 96.6857C173.499 96.8902 173.803 97.1608 174.045 97.4823C174.287 97.8038 174.464 98.1698 174.564 98.5593C174.665 98.9489 174.688 99.3545 174.631 99.7528C174.575 100.151 174.441 100.535 174.236 100.881C174.031 101.228 173.76 101.53 173.438 101.772C173.116 102.014 172.749 102.19 172.359 102.291Z" fill="#CED3DE"/>
<path d="M187.203 109.147L104.387 130.469C103.997 130.569 103.591 130.592 103.192 130.536C102.793 130.48 102.409 130.345 102.062 130.141C101.715 129.937 101.411 129.666 101.169 129.344C100.927 129.023 100.75 128.657 100.649 128.267C100.549 127.878 100.526 127.472 100.582 127.074C100.639 126.676 100.773 126.292 100.978 125.946C101.183 125.599 101.454 125.296 101.776 125.054C102.098 124.813 102.464 124.636 102.855 124.536L185.67 103.214C186.458 103.011 187.295 103.129 187.996 103.542C188.697 103.955 189.205 104.629 189.408 105.416C189.611 106.203 189.493 107.038 189.079 107.738C188.666 108.437 187.991 108.944 187.203 109.147Z" fill="#CED3DE"/>
<path d="M183.949 147.16L113.391 165.326C112.603 165.528 111.767 165.41 111.067 164.997C110.366 164.584 109.858 163.91 109.655 163.124C109.452 162.337 109.57 161.502 109.983 160.803C110.396 160.103 111.071 159.596 111.858 159.393L182.417 141.227C183.205 141.024 184.041 141.142 184.742 141.555C185.443 141.968 185.951 142.641 186.155 143.428C186.358 144.215 186.24 145.05 185.826 145.75C185.413 146.45 184.737 146.957 183.949 147.16Z" fill="#CED3DE"/>
<path d="M198.793 154.017L115.977 175.338C115.587 175.439 115.18 175.462 114.781 175.406C114.382 175.35 113.998 175.216 113.65 175.012C113.303 174.807 112.999 174.536 112.757 174.215C112.514 173.893 112.338 173.527 112.237 173.137C112.136 172.747 112.113 172.342 112.17 171.943C112.226 171.545 112.361 171.161 112.566 170.814C112.771 170.468 113.043 170.165 113.365 169.923C113.687 169.681 114.054 169.505 114.445 169.405L197.26 148.083C198.048 147.88 198.885 147.998 199.586 148.411C200.287 148.824 200.795 149.498 200.998 150.285C201.201 151.072 201.083 151.907 200.669 152.607C200.256 153.306 199.581 153.814 198.793 154.017Z" fill="#CED3DE"/>
<path d="M78.1658 94.2142L53.1958 100.643C52.8179 100.74 52.417 100.683 52.081 100.485C51.7451 100.287 51.5014 99.9643 51.4036 99.5873L45.6718 77.3968C45.5748 77.0196 45.6316 76.6193 45.8298 76.2839C46.0281 75.9484 46.3515 75.7052 46.7291 75.6075L71.6991 69.1788C72.077 69.0819 72.4778 69.1387 72.8138 69.3366C73.1498 69.5345 73.3935 69.8574 73.4913 70.2344L79.2231 92.4249C79.3202 92.8021 79.2633 93.2024 79.0651 93.5378C78.8668 93.8733 78.5434 94.1165 78.1658 94.2142Z" fill="#E0E3EB"/>
<path d="M89.7556 139.083L64.7857 145.512C64.4078 145.609 64.0069 145.552 63.6709 145.354C63.3349 145.156 63.0913 144.833 62.9934 144.456L57.2616 122.266C57.1646 121.889 57.2215 121.488 57.4197 121.153C57.6179 120.818 57.9413 120.574 58.319 120.477L83.2889 114.048C83.6668 113.951 84.0677 114.008 84.4037 114.206C84.7397 114.404 84.9833 114.727 85.0812 115.104L90.813 137.294C90.91 137.671 90.8531 138.072 90.6549 138.407C90.4567 138.742 90.1333 138.986 89.7556 139.083Z" fill="#E0E3EB"/>
<path d="M101.345 183.952L76.3755 190.381C75.9976 190.478 75.5967 190.421 75.2607 190.223C74.9247 190.025 74.6811 189.702 74.5833 189.325L68.8514 167.135C68.7544 166.758 68.8113 166.357 69.0095 166.022C69.2077 165.686 69.5312 165.443 69.9088 165.346L94.8788 158.917C95.2567 158.82 95.6576 158.877 95.9935 159.075C96.3295 159.273 96.5732 159.595 96.671 159.972L102.403 182.163C102.5 182.54 102.443 182.94 102.245 183.276C102.047 183.611 101.723 183.855 101.345 183.952Z" fill="#E0E3EB"/>
<path d="M265.164 44.0842H265.162L121.354 44.0842L121.352 44.0842C117.347 44.0887 113.509 45.6895 110.68 48.5322C107.852 51.3746 106.262 55.2264 106.258 59.242V59.2442L106.258 228.924L106.258 228.926C106.262 232.942 107.852 236.794 110.68 239.636C113.509 242.479 117.347 244.08 121.352 244.084H121.354H265.162H265.164C269.169 244.08 273.006 242.479 275.835 239.636C278.664 236.794 280.253 232.942 280.258 228.926V228.924V59.2442V59.242C280.253 55.2264 278.664 51.3747 275.835 48.5323C273.006 45.6896 269.169 44.0888 265.164 44.0842Z" fill="white" stroke="#CED3DE" stroke-width="4"/>
<path d="M245.974 137H174.033C173.635 137 173.241 136.923 172.873 136.773C172.505 136.622 172.17 136.401 171.889 136.123C171.607 135.844 171.383 135.513 171.231 135.149C171.078 134.785 171 134.394 171 134C171 133.606 171.078 133.215 171.231 132.851C171.383 132.487 171.607 132.156 171.889 131.877C172.17 131.599 172.505 131.378 172.873 131.227C173.241 131.077 173.635 131 174.033 131H245.974C246.777 131.001 247.546 131.317 248.114 131.88C248.681 132.442 249 133.205 249 134C249 134.795 248.681 135.558 248.114 136.12C247.546 136.683 246.777 136.999 245.974 137Z" fill="#E0E3EB"/>
<path d="M259.92 150H174.083C173.679 150 173.278 149.923 172.904 149.773C172.53 149.622 172.19 149.401 171.903 149.123C171.617 148.844 171.39 148.513 171.235 148.149C171.08 147.785 171 147.394 171 147C171 146.606 171.08 146.215 171.235 145.851C171.39 145.487 171.617 145.156 171.903 144.877C172.19 144.599 172.53 144.378 172.904 144.227C173.278 144.077 173.679 144 174.083 144H259.92C260.737 144 261.52 144.316 262.098 144.879C262.676 145.441 263 146.204 263 147C263 147.796 262.676 148.559 262.098 149.121C261.52 149.684 260.737 150 259.92 150Z" fill="#E0E3EB"/>
<path d="M259.427 184H174.577C174.108 184 173.643 183.923 173.209 183.773C172.775 183.622 172.38 183.401 172.048 183.123C171.716 182.844 171.452 182.513 171.272 182.149C171.093 181.785 171 181.394 171 181C171 180.606 171.093 180.215 171.272 179.851C171.452 179.487 171.716 179.156 172.048 178.877C172.38 178.599 172.775 178.378 173.209 178.227C173.643 178.077 174.108 178 174.577 178H259.427C260.374 178 261.283 178.316 261.953 178.879C262.624 179.441 263 180.204 263 181C263 181.796 262.624 182.559 261.953 183.121C261.283 183.684 260.374 184 259.427 184Z" fill="#E0E3EB"/>
<path d="M258.95 196H174.05C173.649 196 173.253 195.923 172.883 195.773C172.513 195.622 172.177 195.401 171.893 195.123C171.61 194.844 171.386 194.513 171.232 194.149C171.079 193.785 171 193.394 171 193C171 192.606 171.079 192.215 171.232 191.851C171.386 191.487 171.61 191.156 171.893 190.877C172.177 190.599 172.513 190.378 172.883 190.227C173.253 190.077 173.649 190 174.05 190H258.95C259.351 190 259.747 190.077 260.117 190.227C260.487 190.378 260.823 190.599 261.107 190.877C261.39 191.156 261.614 191.487 261.768 191.851C261.921 192.215 262 192.606 262 193C262 193.394 261.921 193.785 261.768 194.149C261.614 194.513 261.39 194.844 261.107 195.123C260.823 195.401 260.487 195.622 260.117 195.773C259.747 195.923 259.351 196 258.95 196Z" fill="#E0E3EB"/>
<path d="M155.464 154H128.536C128.129 154 127.739 153.844 127.451 153.567C127.162 153.29 127 152.914 127 152.523V129.477C127 129.086 127.162 128.71 127.451 128.433C127.739 128.156 128.129 128 128.536 128H155.464C155.871 128 156.261 128.156 156.549 128.433C156.838 128.71 157 129.086 157 129.477V152.523C157 152.914 156.838 153.29 156.549 153.567C156.261 153.844 155.871 154 155.464 154Z" fill="#E0E3EB"/>
<path d="M155.464 200H128.536C128.129 200 127.739 199.844 127.451 199.567C127.162 199.29 127 198.914 127 198.523V175.477C127 175.086 127.162 174.71 127.451 174.433C127.739 174.156 128.129 174 128.536 174H155.464C155.871 174 156.261 174.156 156.549 174.433C156.838 174.71 157 175.086 157 175.477V198.523C157 198.914 156.838 199.29 156.549 199.567C156.261 199.844 155.871 200 155.464 200Z" fill="#E0E3EB"/>
<path d="M245.027 87H192.973C192.185 87 191.428 86.6839 190.871 86.1213C190.313 85.5587 190 84.7956 190 84C190 83.2043 190.313 82.4413 190.871 81.8787C191.428 81.3161 192.185 81 192.973 81H245.027C245.815 81 246.572 81.3161 247.129 81.8787C247.687 82.4413 248 83.2043 248 84C248 84.7956 247.687 85.5587 247.129 86.1213C246.572 86.6839 245.815 87 245.027 87Z" fill="#2680EB"/>
<path d="M258.953 99H193.047C192.647 99 192.25 98.9224 191.881 98.7716C191.511 98.6209 191.175 98.3999 190.892 98.1213C190.609 97.8428 190.385 97.512 190.232 97.1481C190.079 96.7841 190 96.394 190 96C190 95.606 190.079 95.2159 190.232 94.8519C190.385 94.488 190.609 94.1572 190.892 93.8787C191.175 93.6001 191.511 93.3791 191.881 93.2284C192.25 93.0776 192.647 93 193.047 93H258.953C259.761 93 260.536 93.3161 261.108 93.8787C261.679 94.4413 262 95.2043 262 96C262 96.7957 261.679 97.5587 261.108 98.1213C260.536 98.6839 259.761 99 258.953 99Z" fill="#2680EB"/>
<path d="M175.598 110H128.402C128.03 110 127.674 109.843 127.411 109.564C127.148 109.286 127 108.908 127 108.514V69.4857C127 69.0918 127.148 68.7142 127.411 68.4356C127.674 68.1571 128.03 68.0004 128.402 68H175.598C175.97 68.0004 176.326 68.1571 176.589 68.4356C176.852 68.7142 177 69.0918 177 69.4857V108.514C177 108.908 176.852 109.286 176.589 109.564C176.326 109.843 175.97 110 175.598 110Z" fill="#2680EB"/>
<path d="M139.569 147.547L134.888 141.595L137.61 139.502L139.827 142.319L147.315 134.504L149.819 136.849L139.569 147.547Z" fill="white"/>
<path d="M139.569 193.84L134.888 187.888L137.61 185.795L139.827 188.612L147.315 180.797L149.819 183.142L139.569 193.84Z" fill="white"/>
<path d="M158.851 99.5044L157.531 100.822L152.692 91.5992L147.413 95.991L148.293 100.383L147.413 101.261L144.774 96.8693L140.375 94.2343L141.255 93.3559L145.654 94.2343L150.053 88.9641L140.815 84.1331L142.135 82.8156L153.572 85.4507L156.211 82.8156C156.942 82.0866 160.775 78.5885 161.93 79.7413C163.085 80.8942 159.581 84.7216 158.851 85.4507L156.211 88.0858L158.851 99.5044Z" fill="white"/>
<path d="M151.812 81.0589C152.259 81.5052 151.986 82.4438 151.513 83.3548L147.777 82.494C148.812 81.6533 151.043 80.2907 151.812 81.0589Z" fill="white"/>
<path d="M160.61 89.8425C161.38 90.6107 160.015 92.8378 159.173 93.8712L158.311 90.1409C159.223 89.6691 160.163 89.3962 160.61 89.8425Z" fill="white"/>
<path fill-rule="evenodd" clip-rule="evenodd" d="M15.8279 91.2791C7.78198 95.3494 2.67645 100.707 0.848355 107.206C-3.24329 121.752 9.67413 139.913 37.2214 158.344C64.2055 176.398 102.184 192.798 144.161 204.521C181.826 215.04 218.7 220.675 249.336 220.675C252.843 220.675 256.274 220.601 259.609 220.452C292.757 218.971 313.266 210.146 317.358 195.6C319.256 188.853 317.542 181.34 312.264 173.271C307.341 165.744 299.418 157.885 288.715 149.911L286.478 152.892C307.278 168.387 316.967 183.197 313.761 194.595C311.976 200.943 306.315 206.099 296.938 209.92C287.537 213.75 274.922 216.042 259.442 216.734C256.153 216.88 252.778 216.953 249.317 216.953C219.029 216.953 182.508 211.365 145.169 200.937C103.564 189.318 65.967 173.094 39.3037 155.254C26.4393 146.647 16.8574 138.155 10.8242 130.015C4.80569 121.894 2.65936 114.558 4.44496 108.21C5.92602 102.945 10.0729 98.4999 16.7957 94.9564L15.8279 91.2791Z" fill="#AEB7C7"/>
<path d="M316.256 10.7778H309.515V4.04224H305.898V10.7778H299.153V14.395H305.898V21.1306H309.515V14.395H316.256V10.7778Z" fill="#E0E3EB"/>
<path d="M231.504 24.5689C233.687 24.5689 235.458 22.8001 235.458 20.6182C235.458 18.4363 233.687 16.6675 231.504 16.6675C229.32 16.6675 227.55 18.4363 227.55 20.6182C227.55 22.8001 229.32 24.5689 231.504 24.5689Z" fill="#E0E3EB"/>
<path d="M305.075 56.9096C306.601 56.9096 307.839 55.6734 307.839 54.1484C307.839 52.6234 306.601 51.3872 305.075 51.3872C303.549 51.3872 302.312 52.6234 302.312 54.1484C302.312 55.6734 303.549 56.9096 305.075 56.9096Z" fill="#E0E3EB"/>
<path d="M303.622 104.507C305.509 104.507 307.038 102.978 307.038 101.093C307.038 99.2081 305.509 97.6799 303.622 97.6799C301.736 97.6799 300.206 99.2081 300.206 101.093C300.206 102.978 301.736 104.507 303.622 104.507Z" fill="#E0E3EB"/>
<path d="M326.725 139.101C329.74 139.101 332.184 136.658 332.184 133.646C332.184 130.633 329.74 128.191 326.725 128.191C323.71 128.191 321.266 130.633 321.266 133.646C321.266 136.658 323.71 139.101 326.725 139.101Z" fill="#E0E3EB"/>
<path d="M8.11933 166.299C11.3819 166.299 14.0267 163.656 14.0267 160.396C14.0267 157.137 11.3819 154.494 8.11933 154.494C4.85676 154.494 2.21191 157.137 2.21191 160.396C2.21191 163.656 4.85676 166.299 8.11933 166.299Z" fill="#E0E3EB"/>
<path d="M96.57 272.562C99.8326 272.562 102.477 269.919 102.477 266.659C102.477 263.399 99.8326 260.757 96.57 260.757C93.3074 260.757 90.6626 263.399 90.6626 266.659C90.6626 269.919 93.3074 272.562 96.57 272.562Z" fill="#E0E3EB"/>
<path d="M22.6473 209.008C24.0471 209.008 25.1819 207.874 25.1819 206.475C25.1819 205.077 24.0471 203.943 22.6473 203.943C21.2475 203.943 20.1128 205.077 20.1128 206.475C20.1128 207.874 21.2475 209.008 22.6473 209.008Z" fill="#E0E3EB"/>
<path d="M23.2674 250.227C25.0096 250.227 26.4219 248.816 26.4219 247.075C26.4219 245.334 25.0096 243.923 23.2674 243.923C21.5251 243.923 20.1128 245.334 20.1128 247.075C20.1128 248.816 21.5251 250.227 23.2674 250.227Z" fill="#E0E3EB"/>
<path d="M14.2742 276.445C16.2836 276.445 17.9126 274.817 17.9126 272.809C17.9126 270.801 16.2836 269.174 14.2742 269.174C12.2647 269.174 10.6357 270.801 10.6357 272.809C10.6357 274.817 12.2647 276.445 14.2742 276.445Z" fill="#E0E3EB"/>
<path d="M210.078 263.717C211.478 263.717 212.613 262.584 212.613 261.185C212.613 259.786 211.478 258.653 210.078 258.653C208.678 258.653 207.543 259.786 207.543 261.185C207.543 262.584 208.678 263.717 210.078 263.717Z" fill="#E0E3EB"/>
<path d="M153.445 261.814H150.281V258.653H148.582V261.814H145.417V263.512H148.582V266.674H150.281V263.512H153.445V261.814Z" fill="#E0E3EB"/>
<path d="M252.239 163.404C252.239 163.404 217.447 177.801 213.719 179.366C209.992 180.931 208.128 184.687 208.128 188.442C208.128 192.198 205.332 241.206 252.239 264.901C252.239 264.901 256.496 266.088 259.726 264.901C262.956 263.714 303.961 243.683 303.961 188.286C303.961 188.286 303.961 182.652 297.437 179.522C290.914 176.393 259.374 163.404 259.374 163.404C259.374 163.404 255.501 161.683 252.239 163.404Z" fill="#399E65"/>
<path d="M255.2 255.6C255.636 256.5 255.636 256.5 255.637 256.499L255.639 256.498L255.646 256.495L255.67 256.483C255.69 256.473 255.719 256.459 255.757 256.44C255.832 256.402 255.942 256.346 256.083 256.271C256.365 256.123 256.775 255.9 257.293 255.602C258.33 255.005 259.804 254.103 261.568 252.873C265.094 250.413 269.787 246.638 274.47 241.367C283.843 230.814 293.164 214.272 292.998 190.349L292.993 189.691L292.387 189.435L255.589 173.879L255.2 173.714L254.811 173.879L218.013 189.435L217.407 189.691L217.402 190.349C217.236 214.272 226.556 230.814 235.93 241.367C240.612 246.638 245.305 250.413 248.832 252.873C250.596 254.103 252.069 255.005 253.106 255.602C253.625 255.9 254.035 256.123 254.317 256.271C254.458 256.346 254.567 256.402 254.643 256.44C254.663 256.45 254.68 256.459 254.696 256.466C254.709 256.473 254.72 256.479 254.73 256.483L254.754 256.495L254.761 256.498L254.763 256.499C254.763 256.5 254.764 256.5 255.2 255.6ZM255.2 255.6L255.636 256.5L255.2 256.711L254.764 256.5L255.2 255.6Z" stroke="white" stroke-width="2"/>
<path opacity="0.1" d="M255.27 174.477V255.72C255.27 255.72 218.214 237.712 218.542 190.368L255.27 174.477Z" fill="black"/>
<path opacity="0.05" d="M255.27 174.477V255.72C255.27 255.72 292.326 237.712 291.998 190.368L255.27 174.477Z" fill="black"/>
<path d="M252.935 229.2L242.4 215.694L248.527 210.942L253.515 217.337L270.365 199.6L276 204.924L252.935 229.2Z" fill="white"/>
</svg>
