<svg width="48" height="48" viewBox="0 0 48 48" fill="none" xmlns="http://www.w3.org/2000/svg">
<rect width="48" height="48" rx="8" fill="#2680EB"/>
<path d="M23.9999 10.6666C31.3639 10.6666 37.3332 16.636 37.3332 24C37.3332 31.364 31.3639 37.3333 23.9999 37.3333C20.8912 37.3378 17.8794 36.2517 15.4892 34.264L15.1639 33.9853L16.3665 31.4493C18.0838 33.2094 20.3565 34.3221 22.8 34.5991C25.2435 34.876 27.7076 34.3002 29.7752 32.9691C31.8429 31.6379 33.3872 29.6333 34.1466 27.2944C34.906 24.9555 34.834 22.426 33.9426 20.1341C33.0513 17.8422 31.3955 15.9287 29.2554 14.7174C27.1153 13.5061 24.6224 13.0715 22.1987 13.487C19.775 13.9026 17.5693 15.1428 15.9549 16.9979C14.3406 18.8529 13.4168 21.2087 13.3399 23.6666L13.3332 24H16.6665L13.0585 31.6213C11.4975 29.3868 10.6623 26.7258 10.6665 24C10.6665 16.636 16.6359 10.6666 23.9999 10.6666ZM25.3332 16V18.6666H28.6665V21.3333H21.3332C21.1666 21.333 21.0059 21.3951 20.8828 21.5073C20.7597 21.6195 20.6831 21.7738 20.668 21.9397C20.653 22.1056 20.7006 22.2712 20.8015 22.4037C20.9024 22.5363 21.0493 22.6263 21.2132 22.656L21.3332 22.6666H26.6665C27.5506 22.6666 28.3984 23.0178 29.0235 23.6429C29.6487 24.2681 29.9999 25.1159 29.9999 26C29.9999 26.884 29.6487 27.7319 29.0235 28.357C28.3984 28.9821 27.5506 29.3333 26.6665 29.3333H25.3332V32H22.6665V29.3333H19.3332V26.6666H26.6665C26.8331 26.6669 26.9938 26.6049 27.1169 26.4926C27.24 26.3804 27.3166 26.2261 27.3317 26.0602C27.3467 25.8943 27.2991 25.7287 27.1982 25.5962C27.0973 25.4636 26.9505 25.3736 26.7865 25.344L26.6665 25.3333H21.3332C20.4491 25.3333 19.6013 24.9821 18.9762 24.357C18.351 23.7319 17.9999 22.884 17.9999 22C17.9999 21.1159 18.351 20.2681 18.9762 19.6429C19.6013 19.0178 20.4491 18.6666 21.3332 18.6666H22.6665V16H25.3332Z" fill="white"/>
</svg>
