<svg width="506" height="272" viewBox="0 0 506 272" fill="none" xmlns="http://www.w3.org/2000/svg">
<g opacity="0.7">
<path d="M92.2031 82.1955C94.8507 77.8065 97.9879 73.1205 102.901 71.6874C108.591 70.0277 114.436 73.3247 119.394 76.578C134.22 86.3078 148.499 96.8522 162.164 108.163L162.149 108.333C151.51 107.598 140.872 106.862 130.233 106.127C122.547 105.596 114.596 104.991 107.804 101.347C105.226 99.9638 102.714 98.1165 99.7929 97.9878C96.1641 97.8279 93 100.368 90.5135 103.022C75.8048 118.721 71.5484 142.728 55.0467 156.52C65.4522 130.8 77.8766 105.947 92.2031 82.1955Z" fill="#F5F7F9"/>
<path d="M195.633 188.496C187.929 188.706 180.247 189.433 172.639 190.669C149.757 194.401 127.818 202.56 108.047 214.693C101.471 218.726 95.1717 223.194 89.1901 228.068C88.4567 228.666 87.7282 229.271 87.0047 229.881C86.54 230.273 85.865 229.603 86.3334 229.208C92.2718 224.202 98.5358 219.598 105.084 215.425C111.625 211.259 118.43 207.526 125.457 204.249C132.493 200.966 139.733 198.14 147.132 195.789C154.52 193.441 162.052 191.579 169.681 190.214C177.291 188.85 184.983 187.993 192.706 187.648C193.682 187.605 194.657 187.57 195.633 187.544C196.244 187.527 196.244 188.479 195.633 188.496Z" fill="#E0E3EB"/>
<path d="M197.454 158.417C183.663 159.384 169.866 160.367 156.129 161.957C142.379 163.548 128.676 165.758 115.251 169.174C103.382 172.193 91.7554 176.169 80.6903 181.446C70.3448 186.38 60.4753 192.397 51.5659 199.631C42.7811 206.764 34.9262 215.09 28.6423 224.527C27.8506 225.715 27.0841 226.92 26.3427 228.142C26.025 228.664 25.2036 228.186 25.5229 227.661C31.5149 217.921 38.9702 209.166 47.626 201.705C56.3024 194.159 65.9918 187.82 76.2186 182.596C86.9177 177.19 98.1259 172.863 109.678 169.678C123.042 165.93 136.73 163.467 150.484 161.695C164.361 159.907 178.316 158.823 192.269 157.831C193.997 157.708 195.725 157.587 197.454 157.466C198.064 157.423 198.061 158.375 197.454 158.417H197.454Z" fill="#E0E3EB"/>
<path d="M0.841385 216.935C2.46793 214.877 4.08293 212.808 5.68639 210.731C18.7503 193.796 31.0294 176.289 42.5236 158.209C50.3309 145.931 57.751 133.416 64.784 120.666C68.1323 114.604 71.3888 108.495 74.5535 102.338C77.0092 97.5646 79.4101 92.7622 81.7562 87.9313C82.4272 86.5515 83.0791 85.1654 83.7278 83.7761C85.2564 80.5089 86.7566 77.226 88.3673 74.0032C90.2028 70.3301 92.4371 66.4793 95.8076 64.0116C97.3415 62.8424 99.1757 62.135 101.096 61.972C103.84 61.7943 106.371 62.9299 108.751 64.1702C126.163 73.2705 142.465 84.6801 157.209 97.6629C171.991 110.675 185.204 125.375 196.578 141.465C196.926 141.963 197.749 141.487 197.397 140.986C196.014 139.025 194.604 137.086 193.166 135.168C175.288 111.336 153.367 90.8416 128.404 74.6218C124.204 71.8939 119.926 69.2939 115.568 66.8219C113.372 65.5753 111.166 64.3446 108.922 63.19C106.723 62.0576 104.387 61.0394 101.874 61.0014C93.3233 60.8681 88.8958 70.5743 85.8546 77.1054C84.8989 79.1609 83.9315 81.2099 82.9526 83.2527C79.2531 91.0081 75.4112 98.6927 71.4268 106.307C68.9678 111.007 66.455 115.681 63.8884 120.327C55.9008 134.794 47.411 148.968 38.4189 162.85C26.507 181.238 13.7575 199.042 0.170441 216.263C-0.203064 216.738 0.464645 217.417 0.841385 216.935Z" fill="#E0E3EB"/>
<path d="M158.054 92.8701C158.551 92.315 159.044 91.7599 159.544 91.2048C163.488 86.8339 167.719 82.5137 173.134 80.0078C175.715 78.7753 178.534 78.1204 181.393 78.0888C184.349 78.0983 187.239 78.8754 189.97 79.9634C191.261 80.4804 192.524 81.0672 193.767 81.6921C195.188 82.409 196.584 83.1734 197.973 83.9442C200.581 85.3906 203.155 86.9005 205.695 88.4738C210.749 91.6045 215.645 94.9742 220.382 98.5828C222.838 100.454 225.243 102.387 227.598 104.381C229.788 106.234 231.934 108.136 234.035 110.088C234.484 110.503 235.155 109.831 234.706 109.415C234.152 108.898 233.592 108.384 233.032 107.877C231.449 106.443 229.842 105.037 228.209 103.658C225.231 101.139 222.176 98.7182 219.044 96.3942C214.173 92.7781 209.135 89.4074 203.929 86.2819C201.328 84.7213 198.691 83.2263 196.017 81.7968C195.21 81.3654 194.394 80.9435 193.568 80.5439C191.694 79.5963 189.746 78.8018 187.745 78.1681C184.91 77.2487 181.91 76.9534 178.95 77.3021C176.093 77.7187 173.339 78.6733 170.836 80.1156C165.519 83.0941 161.396 87.6998 157.383 92.1945C156.978 92.6512 157.646 93.3269 158.054 92.8701Z" fill="#E0E3EB"/>
<path d="M194.029 74.7838L194.786 75.3577C197.815 71.3351 202.078 68.421 206.92 67.0634C211.762 65.7057 216.915 65.9796 221.587 67.8431C226.258 69.7065 230.19 73.0562 232.777 77.3773C235.365 81.6984 236.464 86.7517 235.907 91.7602C235.356 96.881 233.088 101.663 229.475 105.325L230.152 105.992C233.915 102.179 236.277 97.1986 236.851 91.8657C237.431 86.65 236.286 81.3878 233.592 76.8879C230.897 72.388 226.803 68.8997 221.938 66.9591C217.073 65.0185 211.707 64.7331 206.665 66.1468C201.622 67.5605 197.183 70.595 194.029 74.7838Z" fill="#E0E3EB"/>
<path d="M111.449 198.132C111.025 196.982 113.339 195.065 116.618 193.851C119.898 192.637 122.899 192.586 123.323 193.736C123.747 194.887 121.433 196.803 118.153 198.017C114.874 199.231 111.872 199.283 111.449 198.132Z" fill="#ECEFF4"/>
<path d="M91.0174 199.106C90.4057 198.044 92.3639 195.763 95.3912 194.011C98.4185 192.26 101.369 191.7 101.98 192.762C102.592 193.824 100.634 196.105 97.6065 197.857C94.5792 199.609 91.6292 200.168 91.0174 199.106Z" fill="#ECEFF4"/>
<path d="M81.0695 212.811C80.5063 211.722 82.5654 209.533 85.6687 207.92C88.772 206.307 91.7443 205.882 92.3074 206.971C92.8706 208.059 90.8114 210.249 87.7082 211.862C84.6049 213.475 81.6326 213.9 81.0695 212.811Z" fill="#ECEFF4"/>
<path d="M60.8151 217.569C60.2519 216.48 62.3111 214.29 65.4144 212.678C68.5176 211.065 71.4899 210.64 72.053 211.729C72.6162 212.817 70.5571 215.007 67.4538 216.62C64.3505 218.233 61.3783 218.658 60.8151 217.569Z" fill="#ECEFF4"/>
<path d="M174.81 85.5078C181.284 82.1727 189.576 82.8259 195.525 86.9926C184.177 88.9548 172.953 91.5804 161.911 94.8559C166.496 92.1626 170.083 87.9428 174.81 85.5078Z" fill="#F5F7F9"/>
<path d="M195.589 86.9811L196.835 87.9965C196.413 87.6411 195.975 87.3079 195.525 86.9925C195.546 86.9889 195.567 86.9848 195.589 86.9811Z" fill="#F5F7F9"/>
</g>
<g clip-path="url(#clip0_1408:10215)">
<path d="M260.741 223.127L260.496 223.953L439.386 276.838L439.63 276.012L260.741 223.127Z" fill="#E0E3EB"/>
<path d="M380.269 1.06253L283.655 26.5267C283.269 26.6361 282.912 26.831 282.611 27.097C282.275 27.3909 281.989 27.7367 281.763 28.1213C281.514 28.5379 281.323 28.9857 281.193 29.453C281.055 29.9425 280.985 30.4484 280.983 30.9568V174.254C280.984 174.754 281.054 175.252 281.193 175.732C281.32 176.18 281.512 176.607 281.763 176.999C281.988 177.356 282.275 177.67 282.611 177.925C282.917 178.158 283.275 178.313 283.655 178.374L380.269 192.597C380.829 192.682 381.401 192.638 381.942 192.468C382.456 192.303 382.926 192.022 383.316 191.648C383.721 191.258 384.038 190.787 384.248 190.266C384.479 189.69 384.595 189.076 384.592 188.456V4.70111C384.598 4.09388 384.481 3.49169 384.248 2.93099C384.042 2.43899 383.723 2.00251 383.316 1.65701C382.921 1.32554 382.448 1.09861 381.942 0.996972C381.387 0.889681 380.814 0.91212 380.269 1.06253Z" fill="#ECEFF4"/>
<path d="M286.036 30.5478C285.764 30.6278 285.512 30.7678 285.3 30.9575C285.065 31.165 284.864 31.4088 284.706 31.6797C284.532 31.9744 284.399 32.2911 284.31 32.6214C284.216 32.9663 284.17 33.3225 284.173 33.68V171.16C284.169 171.512 284.215 171.863 284.31 172.201C284.397 172.517 284.53 172.819 284.705 173.096C284.862 173.348 285.064 173.57 285.299 173.752C285.515 173.918 285.767 174.028 286.035 174.074L376.533 186.264C376.919 186.311 377.31 186.268 377.676 186.139C378.027 186.013 378.345 185.809 378.607 185.542C378.879 185.263 379.091 184.931 379.229 184.567C379.38 184.165 379.454 183.738 379.445 183.308V10.4434C379.455 10.022 379.382 9.60283 379.229 9.2101C379.093 8.86526 378.881 8.5562 378.607 8.30694C378.342 8.06918 378.022 7.90123 377.676 7.81832C377.3 7.73157 376.908 7.73426 376.533 7.82617L286.036 30.5478Z" fill="white"/>
<path d="M289.865 36.0441C289.678 36.0922 289.507 36.1861 289.366 36.3173C289.203 36.4672 289.066 36.6429 288.961 36.8374C288.84 37.0558 288.748 37.2889 288.687 37.5308C288.62 37.79 288.586 38.0566 288.585 38.3244V57.4727C288.584 57.7265 288.617 57.9793 288.685 58.2239C288.742 58.4323 288.835 58.6292 288.959 58.806C289.063 58.9561 289.203 59.0781 289.365 59.1612C289.52 59.2369 289.695 59.2616 289.864 59.2315L370.751 45.3045C371.018 45.2554 371.271 45.1469 371.49 44.9869C371.726 44.8153 371.931 44.6041 372.095 44.3627C372.273 44.1041 372.411 43.8203 372.505 43.5207C372.605 43.207 372.655 42.88 372.656 42.551V19.1045C372.659 18.7951 372.608 18.4877 372.505 18.1958C372.418 17.9443 372.278 17.7141 372.095 17.5201C371.927 17.3397 371.714 17.2078 371.478 17.1381C371.241 17.0684 370.99 17.0635 370.751 17.124L289.865 36.0441Z" fill="#ECEFF4"/>
<path d="M289.864 68.5526C289.68 68.5861 289.507 68.6634 289.359 68.7779C289.197 68.9025 289.058 69.0548 288.95 69.228C288.829 69.4172 288.737 69.623 288.676 69.8389C288.612 70.0692 288.581 70.3076 288.584 70.5467V111.473C288.581 111.707 288.613 111.94 288.679 112.165C288.738 112.366 288.83 112.557 288.952 112.728C289.061 112.882 289.2 113.011 289.362 113.106C289.515 113.196 289.689 113.243 289.867 113.243L370.753 110.937C371.014 110.925 371.269 110.855 371.5 110.732C371.733 110.609 371.939 110.441 372.108 110.238C372.285 110.027 372.423 109.786 372.515 109.527C372.612 109.253 372.661 108.964 372.657 108.673V58.5598C372.662 58.2766 372.614 57.995 372.515 57.7297C372.425 57.4907 372.287 57.2729 372.108 57.0902C371.938 56.9163 371.73 56.7839 371.5 56.703C371.259 56.6199 371.003 56.5948 370.75 56.6296L289.864 68.5526Z" fill="#ECEFF4"/>
<path d="M296.951 37.1529L360.705 22.702V27.5849L296.951 41.3398V37.1529Z" fill="white"/>
<path d="M297.062 45.9529L360.856 32.9625V35.2308L297.062 47.8972V45.9529Z" fill="white"/>
<path d="M297.062 49.3931L360.856 36.9756V39.2439L297.062 51.3377V49.3931Z" fill="white"/>
<path d="M297.062 52.8333L360.856 40.9888V43.2571L297.062 54.7779V52.8333Z" fill="white"/>
<path d="M289.864 122.856C289.686 122.861 289.511 122.913 289.359 123.008C289.198 123.109 289.059 123.242 288.951 123.399C288.829 123.573 288.737 123.766 288.678 123.97C288.612 124.196 288.581 124.43 288.584 124.665V165.592C288.582 165.83 288.614 166.068 288.679 166.297C288.74 166.511 288.832 166.714 288.952 166.9C289.061 167.069 289.2 167.217 289.362 167.337C289.511 167.447 289.684 167.519 289.867 167.546L370.75 176.926C371.004 176.952 371.26 176.919 371.498 176.829C371.728 176.741 371.936 176.602 372.106 176.423C372.284 176.235 372.422 176.013 372.512 175.77C372.611 175.503 372.66 175.22 372.655 174.936V124.824C372.659 124.534 372.61 124.246 372.512 123.974C372.421 123.718 372.283 123.481 372.106 123.275C371.937 123.078 371.73 122.916 371.498 122.8C371.265 122.685 371.01 122.623 370.75 122.619L289.864 122.856Z" fill="#ECEFF4"/>
<path d="M322.251 43.7051L322.22 43.7102L322.189 43.7163C321.584 43.8346 321.014 44.0878 320.52 44.4569C320.064 44.7971 319.671 45.2139 319.357 45.6887C319.047 46.1555 318.808 46.6659 318.649 47.2031C318.483 47.7575 318.401 48.3337 318.405 48.9123V197.145C318.399 198.289 318.723 199.409 319.337 200.373C319.641 200.851 320.02 201.276 320.461 201.631C320.934 202.014 321.484 202.291 322.074 202.443L322.105 202.451L322.137 202.458L429.503 226.396L429.517 226.399C430.251 226.558 431.009 226.558 431.743 226.399L431.744 226.399C432.468 226.243 433.144 225.916 433.716 225.447C434.288 224.977 434.74 224.377 435.035 223.698L435.037 223.693C435.332 223.008 435.477 222.268 435.462 221.522V31.3269C435.475 30.5818 435.332 29.8422 435.042 29.1556L435.042 29.1538C434.756 28.4785 434.322 27.8761 433.771 27.3914C433.221 26.9066 432.569 26.5519 431.863 26.3534L431.856 26.3516C431.134 26.151 430.376 26.1061 429.635 26.22L429.626 26.2214L429.617 26.2228L322.251 43.7051Z" fill="white" stroke="#ECEFF4" stroke-width="4"/>
<path d="M336.281 65.8694C336.136 65.8865 335.997 65.9366 335.875 66.0159C335.746 66.0992 335.634 66.2055 335.544 66.3294C335.447 66.4618 335.372 66.6089 335.321 66.7651C335.267 66.9304 335.239 67.1033 335.239 67.2773V73.2125C335.239 73.3812 335.266 73.5488 335.321 73.7083C335.37 73.8511 335.446 73.9835 335.544 74.0985C335.634 74.2049 335.747 74.2897 335.874 74.3468C336.002 74.4028 336.142 74.4255 336.28 74.413L408.598 68.0343C408.794 68.0158 408.985 67.9577 409.158 67.8635C409.332 67.7697 409.488 67.6452 409.617 67.4961C409.749 67.3447 409.854 67.1714 409.927 66.9839C410.002 66.7919 410.041 66.5878 410.042 66.3816V59.3722C410.043 59.173 410.004 58.9757 409.928 58.7917C409.857 58.6212 409.752 58.4674 409.618 58.34C409.487 58.2154 409.331 58.1208 409.159 58.0627C408.979 58.0017 408.787 57.9811 408.598 58.0023L336.281 65.8694Z" fill="#2680EB"/>
<path d="M335.889 85.5869C335.853 85.5891 335.818 85.6 335.787 85.6186C335.755 85.6379 335.727 85.6632 335.704 85.6931C335.68 85.7252 335.661 85.761 335.648 85.7993C335.635 85.8402 335.628 85.8831 335.628 85.9263V88.2455C335.628 88.2879 335.635 88.33 335.648 88.3701C335.661 88.4064 335.68 88.4402 335.704 88.4698C335.727 88.4971 335.755 88.5192 335.787 88.5347C335.819 88.5499 335.854 88.5568 335.889 88.5548L409.5 84.5656C409.549 84.5628 409.596 84.5501 409.64 84.528C409.684 84.506 409.723 84.4762 409.755 84.4399C409.823 84.3643 409.861 84.2661 409.861 84.1644V81.4303C409.861 81.38 409.852 81.3301 409.833 81.2835C409.815 81.2399 409.788 81.2003 409.755 81.1671C409.722 81.1338 409.682 81.1079 409.638 81.0913C409.594 81.0747 409.547 81.0677 409.5 81.0708L335.889 85.5869Z" fill="#CED3DE"/>
<path d="M335.889 93.1301C335.853 93.1317 335.818 93.142 335.787 93.1601C335.755 93.1788 335.727 93.2036 335.704 93.2332C335.68 93.2649 335.661 93.3004 335.648 93.3383C335.635 93.3792 335.628 93.422 335.628 93.465V95.7842C335.628 95.8268 335.635 95.8692 335.648 95.9095C335.661 95.9467 335.679 95.9815 335.704 96.0119C335.727 96.0396 335.755 96.0622 335.787 96.0782C335.819 96.0939 335.854 96.1015 335.889 96.1L409.5 93.4483C409.548 93.4468 409.596 93.4351 409.64 93.4141C409.684 93.393 409.723 93.3638 409.755 93.3281C409.823 93.2534 409.861 93.156 409.861 93.0549V90.3192C409.861 90.2687 409.852 90.2188 409.833 90.172C409.815 90.128 409.788 90.088 409.755 90.0542C409.722 90.021 409.683 89.9949 409.64 89.9774C409.596 89.9594 409.548 89.9513 409.5 89.9535L335.889 93.1301Z" fill="#CED3DE"/>
<path d="M335.889 100.674C335.853 100.674 335.818 100.684 335.787 100.702C335.755 100.72 335.727 100.744 335.705 100.773C335.681 100.804 335.662 100.839 335.649 100.877C335.636 100.918 335.629 100.961 335.629 101.003V103.323C335.629 103.365 335.636 103.408 335.649 103.448C335.662 103.485 335.681 103.52 335.705 103.551C335.728 103.579 335.756 103.602 335.788 103.619C335.819 103.635 335.855 103.644 335.89 103.643L409.5 102.331C409.548 102.33 409.596 102.318 409.64 102.297C409.684 102.277 409.723 102.248 409.755 102.213C409.788 102.178 409.815 102.136 409.833 102.091C409.851 102.043 409.861 101.993 409.861 101.942V99.2084C409.861 99.1577 409.851 99.1076 409.833 99.0606C409.815 99.0162 409.788 98.9758 409.755 98.9414C409.723 98.9071 409.684 98.8796 409.64 98.8608C409.596 98.8425 409.548 98.8339 409.5 98.8355L335.889 100.674Z" fill="#CED3DE"/>
<path d="M335.759 115.74C335.724 115.739 335.688 115.747 335.657 115.764C335.625 115.781 335.597 115.804 335.574 115.832C335.55 115.863 335.532 115.898 335.52 115.935C335.506 115.975 335.499 116.017 335.499 116.06V118.378C335.499 118.421 335.506 118.464 335.52 118.505C335.532 118.542 335.551 118.576 335.575 118.607C335.598 118.636 335.626 118.66 335.658 118.678C335.689 118.696 335.724 118.705 335.76 118.706L409.321 120.069C409.369 120.07 409.417 120.06 409.461 120.041C409.504 120.023 409.543 119.996 409.576 119.962C409.609 119.927 409.635 119.886 409.653 119.842C409.672 119.795 409.682 119.745 409.682 119.694V116.961C409.682 116.91 409.672 116.86 409.653 116.813C409.635 116.767 409.609 116.726 409.576 116.69C409.543 116.655 409.504 116.627 409.461 116.607C409.417 116.587 409.369 116.576 409.321 116.576L335.759 115.74Z" fill="#CED3DE"/>
<path d="M335.759 123.281C335.724 123.28 335.689 123.287 335.657 123.303C335.625 123.32 335.597 123.343 335.574 123.372C335.55 123.402 335.531 123.437 335.518 123.474C335.505 123.513 335.499 123.555 335.499 123.596V125.915C335.499 125.958 335.506 126.001 335.52 126.041C335.532 126.079 335.551 126.115 335.575 126.146C335.598 126.176 335.626 126.2 335.658 126.219C335.689 126.237 335.724 126.247 335.76 126.248L409.321 128.949C409.369 128.951 409.416 128.943 409.461 128.924C409.504 128.907 409.543 128.88 409.576 128.847C409.609 128.813 409.635 128.773 409.653 128.728C409.672 128.682 409.682 128.631 409.682 128.581V125.848C409.682 125.796 409.672 125.746 409.653 125.698C409.635 125.653 409.609 125.611 409.576 125.575C409.543 125.539 409.504 125.51 409.461 125.49C409.417 125.469 409.369 125.457 409.321 125.456L335.759 123.281Z" fill="#CED3DE"/>
<path d="M335.759 130.821C335.724 130.82 335.689 130.827 335.658 130.843C335.626 130.858 335.598 130.88 335.575 130.908C335.551 130.937 335.532 130.971 335.52 131.008C335.506 131.048 335.499 131.09 335.499 131.132V133.451C335.499 133.494 335.506 133.537 335.52 133.578C335.532 133.616 335.551 133.652 335.575 133.684C335.598 133.713 335.626 133.738 335.658 133.757C335.689 133.776 335.724 133.786 335.76 133.788L409.321 137.828C409.368 137.831 409.415 137.823 409.459 137.806C409.503 137.79 409.542 137.764 409.576 137.73C409.609 137.697 409.635 137.657 409.653 137.613C409.672 137.566 409.682 137.517 409.682 137.466V134.733C409.681 134.632 409.643 134.535 409.576 134.46C409.543 134.424 409.504 134.394 409.461 134.373C409.417 134.351 409.369 134.338 409.321 134.336L335.759 130.821Z" fill="#CED3DE"/>
<path d="M335.759 138.399C335.724 138.397 335.689 138.403 335.657 138.418C335.625 138.433 335.597 138.455 335.575 138.482C335.551 138.512 335.532 138.545 335.52 138.581C335.506 138.621 335.499 138.664 335.499 138.706V141.025C335.499 141.068 335.506 141.111 335.52 141.152C335.532 141.19 335.551 141.226 335.575 141.259C335.598 141.289 335.626 141.315 335.658 141.334C335.689 141.354 335.724 141.365 335.76 141.368L409.319 146.751C409.367 146.755 409.415 146.748 409.46 146.732C409.502 146.716 409.542 146.691 409.574 146.658C409.608 146.625 409.634 146.586 409.652 146.543C409.671 146.496 409.68 146.447 409.68 146.396V143.663C409.68 143.611 409.67 143.56 409.652 143.512C409.634 143.466 409.607 143.423 409.574 143.386C409.542 143.349 409.503 143.319 409.46 143.297C409.416 143.274 409.368 143.261 409.319 143.257L335.759 138.399Z" fill="#CED3DE"/>
<path d="M335.759 145.94C335.724 145.937 335.689 145.943 335.657 145.957C335.625 145.972 335.597 145.994 335.575 146.021C335.551 146.049 335.532 146.082 335.52 146.118C335.506 146.158 335.499 146.2 335.499 146.242V148.56C335.499 148.604 335.506 148.647 335.52 148.688C335.532 148.727 335.551 148.763 335.575 148.796C335.598 148.826 335.626 148.852 335.658 148.873C335.689 148.892 335.724 148.904 335.76 148.907L409.319 155.63C409.367 155.635 409.415 155.629 409.46 155.613C409.502 155.598 409.542 155.573 409.574 155.542C409.608 155.509 409.634 155.47 409.652 155.428C409.671 155.381 409.68 155.332 409.68 155.282V152.548C409.68 152.496 409.67 152.445 409.652 152.397C409.634 152.35 409.607 152.307 409.574 152.269C409.542 152.232 409.503 152.201 409.46 152.178C409.416 152.155 409.368 152.14 409.319 152.136L335.759 145.94Z" fill="#CED3DE"/>
<path d="M335.759 153.481C335.724 153.477 335.689 153.482 335.657 153.496C335.625 153.51 335.598 153.531 335.575 153.557C335.551 153.585 335.532 153.618 335.52 153.654C335.506 153.694 335.499 153.736 335.499 153.778V156.097C335.499 156.14 335.506 156.183 335.52 156.225C335.532 156.264 335.551 156.3 335.575 156.333C335.598 156.365 335.626 156.391 335.658 156.412C335.689 156.432 335.724 156.445 335.76 156.449L409.319 164.509C409.366 164.514 409.414 164.509 409.46 164.494C409.502 164.48 409.541 164.457 409.574 164.426C409.608 164.394 409.634 164.356 409.652 164.313C409.671 164.267 409.68 164.218 409.68 164.168V161.434C409.68 161.382 409.67 161.33 409.652 161.282C409.634 161.235 409.607 161.191 409.574 161.153C409.542 161.115 409.503 161.084 409.46 161.06C409.416 161.036 409.368 161.02 409.319 161.015L335.759 153.481Z" fill="#CED3DE"/>
<path d="M335.759 161.06C335.725 161.055 335.689 161.06 335.657 161.073C335.626 161.086 335.598 161.105 335.575 161.131C335.55 161.159 335.532 161.192 335.52 161.228C335.506 161.268 335.499 161.31 335.499 161.352V163.67C335.499 163.714 335.506 163.757 335.52 163.798C335.532 163.838 335.551 163.875 335.575 163.908C335.598 163.94 335.626 163.967 335.658 163.988C335.689 164.009 335.724 164.022 335.76 164.027L409.319 173.433C409.366 173.439 409.414 173.435 409.46 173.421C409.502 173.407 409.542 173.383 409.574 173.352C409.608 173.321 409.634 173.283 409.652 173.241C409.671 173.195 409.68 173.146 409.68 173.096V170.364C409.68 170.312 409.67 170.26 409.652 170.212C409.634 170.164 409.607 170.12 409.574 170.081C409.542 170.043 409.503 170.011 409.46 169.986C409.416 169.961 409.369 169.945 409.319 169.939L335.759 161.06Z" fill="#CED3DE"/>
<path d="M335.759 168.6C335.725 168.595 335.689 168.599 335.657 168.612C335.626 168.625 335.598 168.644 335.575 168.67C335.551 168.697 335.532 168.73 335.52 168.765C335.506 168.804 335.499 168.846 335.499 168.887V171.206C335.499 171.25 335.506 171.293 335.52 171.335C335.532 171.374 335.551 171.412 335.575 171.446C335.598 171.477 335.626 171.505 335.658 171.527C335.689 171.548 335.724 171.562 335.76 171.567L409.319 182.312C409.366 182.319 409.414 182.315 409.46 182.302C409.502 182.289 409.541 182.267 409.574 182.237C409.608 182.206 409.634 182.169 409.652 182.127C409.671 182.081 409.681 182.032 409.68 181.983V179.249C409.68 179.197 409.67 179.145 409.652 179.097C409.633 179.049 409.607 179.004 409.574 178.965C409.542 178.926 409.503 178.893 409.46 178.867C409.416 178.842 409.369 178.825 409.319 178.818L335.759 168.6Z" fill="#CED3DE"/>
<path d="M335.759 176.141C335.725 176.135 335.69 176.139 335.657 176.151C335.626 176.163 335.598 176.182 335.575 176.207C335.551 176.234 335.532 176.266 335.52 176.301C335.506 176.34 335.499 176.382 335.499 176.423V178.742C335.499 178.786 335.506 178.83 335.52 178.871C335.532 178.911 335.551 178.949 335.575 178.983C335.598 179.016 335.626 179.044 335.658 179.066C335.688 179.088 335.723 179.102 335.76 179.108L409.319 191.191C409.366 191.199 409.414 191.196 409.46 191.184C409.502 191.172 409.541 191.15 409.574 191.121C409.608 191.091 409.634 191.054 409.652 191.012C409.671 190.967 409.681 190.918 409.68 190.869V188.134C409.68 188.082 409.67 188.03 409.652 187.981C409.633 187.933 409.607 187.888 409.574 187.848C409.542 187.809 409.503 187.775 409.46 187.748C409.417 187.722 409.369 187.704 409.319 187.696L335.759 176.141Z" fill="#CED3DE"/>
</g>
<path d="M430.299 121.755C430.299 121.755 386.809 139.751 382.149 141.707C377.49 143.663 375.16 148.358 375.16 153.053C375.16 157.748 371.665 219.007 430.299 248.626C430.299 248.626 435.62 250.11 439.658 248.626C443.695 247.143 494.951 222.104 494.951 152.857C494.951 152.857 494.951 145.815 486.797 141.903C478.642 137.991 439.217 121.755 439.217 121.755C439.217 121.755 434.376 119.603 430.299 121.755Z" fill="#399E65"/>
<path d="M434 237C434.436 237.9 434.436 237.9 434.437 237.899L434.44 237.898L434.448 237.894L434.477 237.88C434.502 237.868 434.537 237.85 434.584 237.826C434.677 237.78 434.812 237.71 434.987 237.618C435.337 237.433 435.847 237.157 436.492 236.786C437.783 236.043 439.619 234.919 441.817 233.386C446.212 230.32 452.063 225.614 457.9 219.042C469.584 205.889 481.205 185.269 480.997 155.438L480.993 154.78L480.387 154.524L434.389 135.079L434 134.914L433.611 135.079L387.613 154.524L387.007 154.78L387.003 155.438C386.795 185.269 398.416 205.889 410.1 219.042C415.937 225.614 421.788 230.32 426.183 233.386C428.381 234.919 430.217 236.043 431.508 236.786C432.153 237.157 432.663 237.433 433.013 237.618C433.188 237.71 433.323 237.78 433.416 237.826C433.463 237.85 433.498 237.868 433.523 237.88L433.552 237.894L433.56 237.898L433.563 237.899C433.564 237.9 433.564 237.9 434 237ZM434 237L434.436 237.9L434 238.111L433.564 237.9L434 237Z" stroke="white" stroke-width="2"/>
<path opacity="0.1" d="M434.087 135.596V237.15C434.087 237.15 387.767 214.64 388.177 155.46L434.087 135.596Z" fill="black"/>
<path opacity="0.05" d="M434.087 135.596V237.15C434.087 237.15 480.407 214.64 479.997 155.46L434.087 135.596Z" fill="black"/>
<path d="M431.168 204L418 187.117L425.658 181.178L431.893 189.172L452.956 167L460 173.654L431.168 204Z" fill="white"/>
<g clip-path="url(#clip1_1408:10215)">
<path d="M83.3339 215.062C83.4439 219.176 84.1315 223.254 85.3765 227.175C85.4041 227.266 85.4347 227.356 85.4646 227.447H93.0864C93.0784 227.365 93.0701 227.274 93.0621 227.175C92.5539 221.32 95.4571 186.106 98.9604 180.012C98.6535 180.506 82.743 196.457 83.3339 215.062Z" fill="#E0E3EB"/>
<path d="M83.906 227.175C83.9697 227.266 84.036 227.357 84.1039 227.447H89.822C89.7786 227.369 89.7284 227.278 89.6701 227.175C88.7256 225.466 85.9298 220.358 83.3346 215.062C80.5468 209.371 77.9869 203.464 78.2025 201.326C78.1357 201.808 76.2057 216.507 83.906 227.175Z" fill="#E0E3EB"/>
<path d="M176.588 221.155C176.644 223.245 176.993 225.316 177.626 227.309C177.64 227.355 177.656 227.4 177.671 227.447H181.543C181.539 227.405 181.535 227.359 181.531 227.309C181.273 224.334 182.748 206.443 184.527 203.347C184.372 203.598 176.288 211.702 176.588 221.155Z" fill="#E0E3EB"/>
<path d="M176.879 227.309C176.911 227.355 176.945 227.401 176.979 227.447H179.884C179.862 227.407 179.837 227.361 179.807 227.309C179.327 226.441 177.907 223.845 176.588 221.155C175.172 218.263 173.872 215.262 173.981 214.176C173.947 214.421 172.967 221.889 176.879 227.309Z" fill="#E0E3EB"/>
<path d="M153.663 102.002L143.807 109.029L149.94 109.688L158.483 102.442L153.663 102.002Z" fill="#3F3D56"/>
<path d="M115.1 221.98L121.028 221.98L123.849 199.062L115.099 199.062L115.1 221.98Z" fill="#EFB58D"/>
<path d="M113.587 220.04L125.263 220.04H125.263C127.236 220.04 129.129 220.826 130.524 222.224C131.919 223.623 132.703 225.519 132.704 227.497V227.739L113.588 227.74L113.587 220.04Z" fill="#2F2E41"/>
<path d="M111.372 140.121C111.372 140.121 108.803 143.032 113.058 154.379L112.308 216.597L126.096 216.327L129.126 185.978L134.644 141.689L111.372 140.121Z" fill="#2F2E41"/>
<path d="M97.6071 130.299C96.7925 130.297 96.0109 129.976 95.428 129.406C94.8452 128.836 94.5071 128.06 94.4854 127.244L93.8384 102.806L104.909 81.755C105.161 81.2809 105.528 80.879 105.978 80.5871C106.428 80.2951 106.944 80.1229 107.478 80.0867L115.915 79.5438L115.187 128.805L97.8815 130.287C97.7896 130.295 97.6982 130.299 97.6071 130.299Z" fill="#1477ED"/>
<path d="M139.373 148.723L139.222 148.7C121.584 146.004 108.274 143.419 108.142 143.393L107.977 143.361L112.6 132.09C112.564 130.912 111.563 97.8389 113.479 88.3366C115.334 79.1378 124.076 77.6303 125.073 77.4885L126.073 74.1664L138.711 80.7577L140.915 88.361L141.363 109.2L139.373 148.723Z" fill="#3F3D56"/>
<path d="M122.005 117.174C113.862 117.174 107.237 108.301 107.237 97.3942C107.237 86.4874 113.862 77.614 122.005 77.614C130.147 77.614 136.772 86.4874 136.772 97.3942C136.772 108.301 130.147 117.174 122.005 117.174ZM122.005 79.5505C114.927 79.5505 109.169 87.5552 109.169 97.3942C109.169 107.233 114.927 115.238 122.005 115.238C129.082 115.238 134.84 107.233 134.84 97.3942C134.84 87.5552 129.082 79.5505 122.005 79.5505Z" fill="#1477ED"/>
<path d="M146.985 105.832C146.416 105.832 145.853 105.95 145.331 106.178C144.81 106.407 144.341 106.741 143.955 107.16H122.712L114.931 108.82L116.208 118.696L143.888 112.73C144.346 113.248 144.927 113.644 145.577 113.88C146.227 114.116 146.926 114.185 147.609 114.081C148.292 113.976 148.939 113.702 149.489 113.283C150.04 112.864 150.477 112.314 150.761 111.682C151.044 111.05 151.166 110.357 151.113 109.666C151.061 108.975 150.837 108.309 150.461 107.727C150.086 107.145 149.571 106.667 148.964 106.336C148.356 106.005 147.676 105.832 146.985 105.832Z" fill="#EFB58D"/>
<path d="M145.425 72.767C149.423 68.7598 149.423 62.2629 145.425 58.2557C141.427 54.2485 134.945 54.2485 130.946 58.2557C126.948 62.2629 126.948 68.7598 130.946 72.767C134.945 76.7742 141.427 76.7742 145.425 72.767Z" fill="#EFB58D"/>
<path d="M128.557 57.3081L128.06 56.3069L130.558 55.0633C130.558 55.0633 133.313 50.5704 138.298 51.833C143.283 53.0956 145.526 53.8512 145.526 53.8512L148.018 55.1075L146.767 56.3543L149.01 57.11L147.512 57.8561L149.255 58.8605L148.317 64.0093C148.317 64.0093 146.758 60.1041 143.761 61.5965C140.764 63.0888 135.282 60.825 135.282 60.825L130.52 70.0626C130.52 70.0626 129.537 66.8244 127.786 67.6879C127.786 67.6879 123.31 60.5447 128.557 57.3081Z" fill="#2F2E41"/>
<path d="M217.515 120.48L217.078 112.254L212.661 108.658L210.103 116.275L195.793 135.403C195.116 135.512 194.485 135.812 193.974 136.269C193.462 136.726 193.092 137.32 192.907 137.982C192.722 138.643 192.73 139.343 192.93 140C193.129 140.657 193.513 141.243 194.034 141.688C194.556 142.134 195.194 142.42 195.873 142.513C196.551 142.607 197.243 142.503 197.865 142.215C198.487 141.927 199.013 141.467 199.382 140.888C199.751 140.31 199.947 139.637 199.947 138.95C199.947 138.902 199.942 138.855 199.94 138.807L217.515 120.48Z" fill="#EFB58D"/>
<path d="M226.02 224.15L222.636 224.15L221.026 211.068L226.02 211.068L226.02 224.15Z" fill="#EFB58D"/>
<path d="M226.883 227.437L215.971 227.437V227.299C215.971 226.17 216.419 225.087 217.215 224.289C218.012 223.491 219.092 223.042 220.218 223.042H220.218L226.883 223.042L226.883 227.437Z" fill="#2F2E41"/>
<path d="M241.753 224.15L238.369 224.15L236.759 211.068L241.753 211.068L241.753 224.15Z" fill="#EFB58D"/>
<path d="M242.616 227.437L231.705 227.437V227.299C231.705 226.17 232.153 225.087 232.949 224.289C233.746 223.491 234.826 223.042 235.952 223.042H235.952L242.617 223.042L242.616 227.437Z" fill="#2F2E41"/>
<path d="M238.176 86.117C239.609 80.1881 240.823 73.501 238.121 68.0404C236.246 64.2516 229.311 62.9757 225.335 64.3406C221.359 65.7056 218.485 69.4088 217.221 73.4465C215.957 77.4842 216.103 81.8352 216.654 86.0326C223.966 85.8919 231.278 85.7511 238.176 86.117Z" fill="#2F2E41"/>
<path d="M229.927 85.0682C234.059 82.8044 235.577 77.6121 233.319 73.4709C231.06 69.3297 225.879 67.8077 221.748 70.0715C217.616 72.3353 216.097 77.5276 218.356 81.6688C220.615 85.81 225.795 87.332 229.927 85.0682Z" fill="#EFB58D"/>
<path d="M236.261 75.8095C236.288 74.3713 236.026 72.9422 235.491 71.6073C234.956 70.2724 234.159 69.0588 233.147 68.0388C232.135 67.0187 230.929 66.2129 229.6 65.6693C228.271 65.1256 226.847 64.8553 225.412 64.8742C223.977 64.8932 222.56 65.2011 221.246 65.7796C219.932 66.3582 218.747 67.1956 217.762 68.242C216.778 69.2885 216.013 70.5227 215.513 71.8713C215.014 73.2199 214.79 74.6553 214.855 76.0924C222.153 76.1079 229.45 76.1234 236.261 75.8095Z" fill="#2F2E41"/>
<path d="M212.146 129.055C212.146 129.055 210.758 149.253 211.511 155.415C212.264 161.576 220.462 215.442 220.462 215.442L226.647 215.431L228.482 151.953L235.795 216.048L242.191 215.382L245.819 152.685C245.819 152.685 245.25 129.213 240.626 126.859L212.146 129.055Z" fill="#2F2E41"/>
<path d="M221.846 149.077C217.303 149.075 212.827 147.989 208.787 145.908L208.699 145.862L212.117 123.13L211.895 96.0368C211.889 95.2932 212.031 94.5558 212.312 93.8676C212.593 93.1795 213.009 92.5544 213.534 92.0288C214.058 91.5033 214.683 91.0877 215.369 90.8065C216.056 90.5252 216.792 90.3839 217.534 90.3907L235.876 90.5594C236.688 90.5669 237.49 90.7417 238.232 91.0731C238.974 91.4046 239.639 91.8854 240.188 92.4858C240.736 93.0862 241.155 93.7932 241.419 94.563C241.683 95.3327 241.787 96.1487 241.722 96.9601L240.006 118.68L245.682 136.309L244.696 137.623C242.036 141.179 238.586 144.066 234.62 146.054C230.654 148.042 226.28 149.077 221.846 149.077Z" fill="#3F3D56"/>
<path d="M210.052 113.764L211.974 94.108L212.592 93.227C213.015 92.6236 213.553 92.1099 214.175 91.7154C214.797 91.3209 215.49 91.0534 216.215 90.9282C216.94 90.803 217.683 90.8225 218.401 90.9857C219.118 91.149 219.797 91.4526 220.397 91.8793L220.926 92.2558L220.404 112.176L210.052 113.764Z" fill="#3F3D56"/>
<path d="M283.566 209.797C288.535 208.421 290.655 215.984 285.699 217.403C280.731 218.779 278.61 211.217 283.566 209.797Z" fill="#3F3D56"/>
<path d="M261.26 219.53C266.228 218.155 268.349 225.717 263.393 227.137C258.424 228.512 256.304 220.95 261.26 219.53Z" fill="#3F3D56"/>
<path d="M250.109 139.771L250.186 139.75L262.985 174.574L264.672 174.099L251.782 139.025C251.754 138.484 251.542 137.969 251.182 137.566C250.822 137.162 250.335 136.894 249.802 136.806C243.402 135.792 240.808 141.486 240.808 141.486L240.833 141.524L253.918 177.128L255.605 176.653L242.906 142.097C246.772 138.264 250.109 139.771 250.109 139.771Z" fill="#3F3D56"/>
<path d="M264.778 221.489C262.952 221.474 261.178 220.874 259.716 219.777C258.254 218.681 257.179 217.145 256.648 215.394C254.206 207.381 248.442 188.182 247.679 182.971C246.684 176.187 252.287 174.258 252.412 174.217C252.563 174.166 254.815 173.534 257.933 172.66C263.232 171.173 271.241 168.927 271.535 168.794C272.776 168.362 274.092 168.191 275.402 168.292C276.712 168.394 277.987 168.765 279.147 169.383C280.342 170.014 281.397 170.881 282.248 171.933C283.099 172.984 283.727 174.198 284.095 175.501L292.338 204.896C292.847 206.697 292.704 208.622 291.936 210.328C291.167 212.035 289.821 213.415 288.136 214.225C281.776 217.288 272.447 221.373 264.903 221.489C264.861 221.489 264.819 221.489 264.778 221.489Z" fill="#1477ED"/>
<path d="M248.748 138.567L244.604 114.305L244.142 106.118L237.442 108.317L243.093 140.085C242.865 140.704 242.811 141.373 242.936 142.02C243.062 142.667 243.363 143.267 243.806 143.754C244.249 144.241 244.817 144.597 245.449 144.782C246.08 144.967 246.75 144.975 247.385 144.804C248.02 144.634 248.596 144.291 249.051 143.815C249.505 143.338 249.82 142.745 249.96 142.101C250.101 141.457 250.062 140.787 249.849 140.164C249.635 139.54 249.254 138.988 248.748 138.567V138.567Z" fill="#EFB58D"/>
<path d="M245.739 112.784L235.282 112.214L232.825 92.4394L233.064 92.2316C233.653 91.7197 234.337 91.3294 235.077 91.0831C235.816 90.8368 236.597 90.7393 237.375 90.7963C238.152 90.8533 238.911 91.0636 239.607 91.4152C240.303 91.7668 240.923 92.2526 241.431 92.845L241.915 93.4088L241.922 93.4444L245.739 112.784Z" fill="#3F3D56"/>
<path d="M288.32 209.376L277.632 173.121L252.501 180.239L252.351 179.707L278.007 172.44L278.084 172.702L288.849 209.219L288.32 209.376Z" fill="#3F3D56"/>
<path d="M98.4046 127.7L97.2666 102.829L108.924 79.9907L109.415 80.2427L97.825 102.95L98.9561 127.674L98.4046 127.7Z" fill="#3F3D56"/>
<path d="M116.344 120.547L113.915 113.305L113.327 89.1622L114.362 85.7368C114.735 84.504 115.352 83.3592 116.176 82.3711C117.001 81.383 118.016 80.5719 119.161 79.9864C120.306 79.4009 121.557 79.0532 122.839 78.9639C124.121 78.8746 125.408 79.0457 126.623 79.4668C127.837 79.888 128.955 80.5506 129.908 81.415C130.861 82.2793 131.63 83.3276 132.169 84.4969C132.708 85.6663 133.006 86.9328 133.045 88.2203C133.084 89.5079 132.863 90.7901 132.396 91.9902L126.848 106.239L127.13 106.788L139.15 106.69L143.419 114.393L116.344 120.547Z" fill="#3F3D56"/>
<path d="M192.914 172.086L192.906 172.088L179.584 174.761L168.123 179.387C167.975 179.447 167.817 179.477 167.657 179.475C167.497 179.473 167.34 179.44 167.193 179.378C167.046 179.315 166.912 179.224 166.801 179.109C166.689 178.995 166.601 178.86 166.541 178.711C166.527 178.676 166.514 178.641 166.504 178.605L158.132 150.508C158.044 150.217 158.068 149.903 158.2 149.629C158.331 149.355 158.561 149.141 158.843 149.028L170.513 144.318L170.521 144.317L183.843 141.644L195.303 137.018C195.603 136.897 195.937 136.9 196.234 137.027C196.531 137.154 196.765 137.393 196.886 137.693C196.9 137.728 196.912 137.764 196.923 137.8L205.295 165.897C205.383 166.188 205.359 166.501 205.227 166.775C205.096 167.049 204.866 167.264 204.584 167.376L192.914 172.086Z" fill="#E0E3EB"/>
<path d="M178.619 153.213C175.564 152.133 172.406 151.186 169.234 150.4L169.075 150.361L170.685 155.765L178.89 153.309L178.619 153.213ZM170.811 155.532L169.348 150.622C172.367 151.375 175.371 152.274 178.285 153.295L170.811 155.532ZM194.627 160.519C193.205 159.713 191.762 158.941 190.299 158.204C189.896 158 189.491 157.799 189.086 157.602C186.608 156.394 184.093 155.293 181.54 154.298L181.51 154.287L171.167 157.382L173.992 166.861L194.818 160.628L194.627 160.519ZM174.118 166.628L171.4 157.508L181.502 154.485C183.964 155.444 186.398 156.507 188.804 157.673C189.221 157.876 189.637 158.081 190.052 158.289C191.501 159.016 192.931 159.778 194.343 160.574L174.118 166.628ZM194.627 160.519C193.205 159.713 191.762 158.941 190.299 158.204C189.896 158 189.491 157.799 189.086 157.602C186.608 156.394 184.093 155.293 181.54 154.298L181.51 154.287L171.167 157.382L173.992 166.861L194.818 160.628L194.627 160.519ZM174.118 166.628L171.4 157.508L181.502 154.485C183.964 155.444 186.398 156.507 188.804 157.673C189.221 157.876 189.637 158.081 190.052 158.289C191.501 159.016 192.931 159.778 194.343 160.574L174.118 166.628ZM178.619 153.213C175.564 152.133 172.406 151.186 169.234 150.4L169.075 150.361L170.685 155.765L178.89 153.309L178.619 153.213ZM170.811 155.532L169.348 150.622C172.367 151.375 175.371 152.274 178.285 153.295L170.811 155.532ZM178.619 153.213C175.564 152.133 172.406 151.186 169.234 150.4L169.075 150.361L170.685 155.765L178.89 153.309L178.619 153.213ZM170.811 155.532L169.348 150.622C172.367 151.375 175.371 152.274 178.285 153.295L170.811 155.532ZM194.627 160.519C193.205 159.713 191.762 158.941 190.299 158.204C189.896 158 189.491 157.799 189.086 157.602C186.608 156.394 184.093 155.293 181.54 154.298L181.51 154.287L171.167 157.382L173.992 166.861L194.818 160.628L194.627 160.519ZM174.118 166.628L171.4 157.508L181.502 154.485C183.964 155.444 186.398 156.507 188.804 157.673C189.221 157.876 189.637 158.081 190.052 158.289C191.501 159.016 192.931 159.778 194.343 160.574L174.118 166.628ZM165.6 171.135L165.653 171.315L172.734 169.195L173.511 171.801L166.43 173.92L166.483 174.1L173.744 171.927L172.86 168.962L165.6 171.135ZM175.839 173.061L176.382 174.882L176.556 174.811L176.072 173.187L203.683 164.922L203.629 164.743L175.839 173.061ZM202.318 160.34L202.264 160.16L174.474 168.479L175.357 171.444L203.148 163.125L203.094 162.946L175.483 171.21L174.707 168.605L202.318 160.34ZM181.679 152.279C177.447 150.649 173.099 149.338 168.673 148.355L168.131 146.536L167.956 146.606L168.503 148.439L168.686 148.55C173.095 149.532 177.426 150.84 181.641 152.465L181.671 152.477L198.476 147.447L198.422 147.267L181.679 152.279ZM168.839 156.122L161.758 158.242L161.811 158.421L169.072 156.248L166.387 147.239L166.213 147.309L168.839 156.122ZM198.958 149.064L184.184 153.486L184.425 153.587C186.691 154.543 188.951 155.599 191.205 156.756C191.525 156.921 191.845 157.087 192.165 157.256C193.756 158.094 195.335 158.978 196.902 159.909L197.076 159.952L201.782 158.543L201.729 158.364L197.033 159.769C195.484 158.847 193.919 157.97 192.341 157.137C192.025 156.97 191.709 156.805 191.392 156.642C189.186 155.506 186.967 154.464 184.737 153.516L199.011 149.244L198.958 149.064ZM166.965 175.717L167.019 175.897L174.1 173.777L174.638 175.585L174.813 175.515L174.226 173.544L166.965 175.717ZM162.293 160.039L162.347 160.218L169.428 158.099L172.145 167.218L165.064 169.338L165.118 169.518L172.378 167.344L169.554 157.865L162.293 160.039ZM178.619 153.213C175.564 152.133 172.406 151.186 169.234 150.4L169.075 150.361L170.685 155.765L178.89 153.309L178.619 153.213ZM170.811 155.532L169.348 150.622C172.367 151.375 175.371 152.274 178.285 153.295L170.811 155.532ZM194.627 160.519C193.205 159.713 191.762 158.941 190.299 158.204C189.896 158 189.491 157.799 189.086 157.602C186.608 156.394 184.093 155.293 181.54 154.298L181.51 154.287L171.167 157.382L173.992 166.861L194.818 160.628L194.627 160.519ZM174.118 166.628L171.4 157.508L181.502 154.485C183.964 155.444 186.398 156.507 188.804 157.673C189.221 157.876 189.637 158.081 190.052 158.289C191.501 159.016 192.931 159.778 194.343 160.574L174.118 166.628ZM178.619 153.213C175.564 152.133 172.406 151.186 169.234 150.4L169.075 150.361L170.685 155.765L178.89 153.309L178.619 153.213ZM170.811 155.532L169.348 150.622C172.367 151.375 175.371 152.274 178.285 153.295L170.811 155.532ZM194.627 160.519C193.205 159.713 191.762 158.941 190.299 158.204C189.896 158 189.491 157.799 189.086 157.602C186.608 156.394 184.093 155.293 181.54 154.298L181.51 154.287L171.167 157.382L173.992 166.861L194.818 160.628L194.627 160.519ZM174.118 166.628L171.4 157.508L181.502 154.485C183.964 155.444 186.398 156.507 188.804 157.673C189.221 157.876 189.637 158.081 190.052 158.289C191.501 159.016 192.931 159.778 194.343 160.574L174.118 166.628Z" fill="white"/>
<path d="M180.997 154.06C181.675 156.335 179.075 162.635 179.075 162.635C179.075 162.635 173.454 158.796 172.776 156.521C172.45 155.428 172.571 154.25 173.112 153.247C173.652 152.244 174.569 151.497 175.659 151.17C176.749 150.844 177.924 150.965 178.925 151.507C179.926 152.049 180.672 152.967 180.997 154.06H180.997Z" fill="#1477ED"/>
<path d="M178.713 154.549C178.824 154.921 178.822 155.318 178.708 155.69C178.594 156.061 178.372 156.391 178.071 156.636C177.77 156.881 177.403 157.032 177.017 157.068C176.631 157.105 176.243 157.026 175.901 156.841C175.56 156.656 175.281 156.374 175.1 156.03C174.918 155.687 174.843 155.297 174.882 154.91C174.922 154.523 175.075 154.157 175.323 153.858C175.57 153.558 175.9 153.339 176.272 153.228C176.519 153.154 176.778 153.129 177.034 153.156C177.29 153.182 177.539 153.259 177.766 153.381C177.992 153.504 178.192 153.67 178.355 153.871C178.518 154.071 178.639 154.301 178.713 154.549Z" fill="white"/>
<path d="M179.63 165.657C180.269 165.657 180.787 165.138 180.787 164.498C180.787 163.858 180.269 163.339 179.63 163.339C178.991 163.339 178.474 163.858 178.474 164.498C178.474 165.138 178.991 165.657 179.63 165.657Z" fill="#1477ED"/>
<path d="M192.25 149.258L184.212 151.663C184.202 151.667 184.192 151.669 184.182 151.67L186.017 143.933C186.028 143.885 186.051 143.841 186.085 143.805C186.118 143.769 186.161 143.742 186.208 143.728C186.255 143.714 186.305 143.713 186.353 143.724C186.401 143.736 186.444 143.76 186.48 143.794L190.351 147.459L190.536 147.635L192.25 149.258Z" fill="white"/>
<path opacity="0.2" d="M192.25 149.258L189.505 150.079L190.268 147.715L190.323 147.544L190.351 147.459L190.536 147.635L192.25 149.258Z" fill="black"/>
<path d="M196.725 147.918L189.773 149.999L190.536 147.634L190.591 147.464L191.584 144.383C191.604 144.335 191.633 144.291 191.671 144.255C191.708 144.218 191.752 144.191 191.801 144.173C191.85 144.155 191.902 144.147 191.954 144.151C192.006 144.155 192.056 144.169 192.102 144.194C192.114 144.201 192.126 144.209 192.137 144.218L196.725 147.918Z" fill="white"/>
</g>
<defs>
<clipPath id="clip0_1408:10215">
<rect width="180" height="272" fill="white" transform="translate(260)"/>
</clipPath>
<clipPath id="clip1_1408:10215">
<rect width="216" height="177" fill="white" transform="translate(77 51)"/>
</clipPath>
</defs>
</svg>
