<svg width="108" height="41" viewBox="0 0 108 41" fill="none" xmlns="http://www.w3.org/2000/svg">
<path d="M32.0026 40.5544H41.3069L22.6982 0.668488H18.9322L0.323486 40.5544H9.62783L12.0647 35.2065H29.5657L32.0026 40.5544ZM15.8307 26.962L20.7044 16.2663L25.5781 26.962H15.8307Z" fill="#6f6d81"/>
<path d="M58.1433 26.5163C61.4663 24.0652 63.6816 19.8315 63.6816 14.9293C63.6816 7.35325 58.1433 1.11412 51.2758 0.891296H31.338L35.7686 10.0272C35.7686 10.0272 49.7251 10.0272 49.9466 10.0272C52.3835 10.4728 54.1558 12.4783 54.1558 14.9293C54.1558 16.0435 53.7127 17.1576 53.0481 18.0489C52.3835 18.9402 51.0543 19.6087 49.9466 19.8315H40.4208L44.8514 28.7446H47.7313L54.5988 40.5543H66.34L58.1433 26.5163Z" fill="#6f6d81"/>
<path d="M97.133 25.1793C95.5823 28.9674 92.0378 31.6413 88.0502 31.6413C82.5119 31.6413 78.0812 26.7391 78.0812 20.5C78.0812 14.4837 82.5119 9.3587 88.0502 9.3587C91.8162 9.3587 95.1392 11.587 96.6899 15.1522H107.102C104.887 6.46196 96.9115 0 87.6071 0C76.5305 0 67.4477 9.13587 67.4477 20.5C67.4477 31.8641 76.5305 41 87.6071 41C97.133 41 105.108 34.0924 107.323 24.9565H97.133V25.1793Z" fill="#6f6d81"/>
</svg>
