<svg width="48" height="48" viewBox="0 0 48 48" fill="none" xmlns="http://www.w3.org/2000/svg">
<rect width="48" height="48" rx="8" fill="#2680EB"/>
<path fill-rule="evenodd" clip-rule="evenodd" d="M28.8839 19.1161C29.372 19.6043 29.372 20.3957 28.8839 20.8839L20.8839 28.8839C20.3957 29.372 19.6043 29.372 19.1161 28.8839C18.628 28.3957 18.628 27.6043 19.1161 27.1161L27.1161 19.1161C27.6043 18.628 28.3957 18.628 28.8839 19.1161Z" fill="white"/>
<path d="M20.6667 21.3333C21.0349 21.3333 21.3333 21.0349 21.3333 20.6667C21.3333 20.2985 21.0349 20 20.6667 20C20.2985 20 20 20.2985 20 20.6667C20 21.0349 20.2985 21.3333 20.6667 21.3333Z" fill="white"/>
<path fill-rule="evenodd" clip-rule="evenodd" d="M20.6667 21.25C20.9888 21.25 21.25 20.9888 21.25 20.6667C21.25 20.3445 20.9888 20.0833 20.6667 20.0833C20.3445 20.0833 20.0833 20.3445 20.0833 20.6667C20.0833 20.9888 20.3445 21.25 20.6667 21.25ZM18.75 20.6667C18.75 19.6081 19.6081 18.75 20.6667 18.75C21.7252 18.75 22.5833 19.6081 22.5833 20.6667C22.5833 21.7252 21.7252 22.5833 20.6667 22.5833C19.6081 22.5833 18.75 21.7252 18.75 20.6667Z" fill="white"/>
<path d="M27.3332 28C27.7014 28 27.9998 27.7015 27.9998 27.3333C27.9998 26.9651 27.7014 26.6666 27.3332 26.6666C26.965 26.6666 26.6665 26.9651 26.6665 27.3333C26.6665 27.7015 26.965 28 27.3332 28Z" fill="white"/>
<path fill-rule="evenodd" clip-rule="evenodd" d="M27.3332 27.9166C27.6553 27.9166 27.9165 27.6555 27.9165 27.3333C27.9165 27.0111 27.6553 26.75 27.3332 26.75C27.011 26.75 26.7498 27.0111 26.7498 27.3333C26.7498 27.6555 27.011 27.9166 27.3332 27.9166ZM25.4165 27.3333C25.4165 26.2747 26.2746 25.4166 27.3332 25.4166C28.3917 25.4166 29.2498 26.2747 29.2498 27.3333C29.2498 28.3918 28.3917 29.25 27.3332 29.25C26.2746 29.25 25.4165 28.3918 25.4165 27.3333Z" fill="white"/>
<path fill-rule="evenodd" clip-rule="evenodd" d="M24 13.25C18.0629 13.25 13.25 18.0629 13.25 24C13.25 29.9371 18.0629 34.75 24 34.75C29.9371 34.75 34.75 29.9371 34.75 24C34.75 18.0629 29.9371 13.25 24 13.25ZM10.75 24C10.75 16.6822 16.6822 10.75 24 10.75C31.3178 10.75 37.25 16.6822 37.25 24C37.25 31.3178 31.3178 37.25 24 37.25C16.6822 37.25 10.75 31.3178 10.75 24Z" fill="white"/>
</svg>
