<svg width="109" height="28" viewBox="0 0 109 28" fill="none" xmlns="http://www.w3.org/2000/svg">
<path d="M85.7991 10.3793V12.4612H83.6812V10.3793H85.7991Z" fill="#6f6d81"/>
<path d="M85.7991 23.6853H83.6812V14.0905H85.7991V23.6853Z" fill="#6f6d81"/>
<path d="M39.97 12.4159V10.4246H29.245V12.4612H33.4359V23.6401H35.7791V12.4159H39.97Z" fill="#6f6d81"/>
<path d="M44.8819 15.9461V13.9095L44.5214 13.8642C43.0794 13.8642 41.9978 14.5883 41.3219 15.9914V14.0905H39.3391V23.6401H41.412V19.431C41.412 17.0323 42.3133 15.8556 44.1609 15.9008C44.251 15.9008 44.5214 15.9008 44.8819 15.9461Z" fill="#6f6d81"/>
<path d="M54.3902 14.0905V23.6853H52.4074V22.237C51.5962 23.3685 50.5598 23.9116 49.253 23.9116C48.2165 23.9116 47.4054 23.5948 46.8196 23.0064C46.2788 22.4181 45.9634 21.5582 45.9634 20.4267V14.0905H48.0813V20.3814C48.0813 20.6077 48.1264 20.834 48.2165 21.0603C48.3066 21.2866 48.3968 21.5129 48.532 21.6487C48.6671 21.7845 48.8474 21.9202 49.0727 22.0108C49.298 22.1013 49.6135 22.1465 49.9289 22.1465C50.74 22.1465 51.2808 21.875 51.6864 21.2866C52.0469 20.7435 52.2271 20.0194 52.2271 19.1595V14.0905H54.3902Z" fill="#6f6d81"/>
<path d="M62.141 16.8513H64.1688C64.1688 15.8103 63.8083 15.0862 63.0873 14.5431C62.3213 14.0453 61.3749 13.7737 60.2033 13.7737C58.9866 13.7737 57.9952 14.0453 57.3193 14.5431C56.6433 15.0409 56.2828 15.7651 56.2828 16.6703C56.2828 17.666 56.7334 18.3901 57.6347 18.8879C57.9952 19.069 58.8514 19.3405 60.2033 19.6573C60.2539 19.6827 60.3045 19.6939 60.3631 19.7068C60.4088 19.7169 60.4595 19.728 60.5187 19.7478C60.753 19.7815 60.9624 19.84 61.1285 19.8865C61.1861 19.9026 61.2384 19.9172 61.2848 19.9289C61.4113 19.9606 61.5377 20.0147 61.6797 20.0753C61.7402 20.1011 61.8034 20.1282 61.8706 20.1552C62.0959 20.2457 62.2311 20.3815 62.3213 20.5172C62.4114 20.653 62.4564 20.8341 62.4564 21.0603C62.4564 21.4677 62.2311 21.7845 61.8706 22.056C61.5101 22.2823 61.0144 22.4181 60.3835 22.4181C58.9866 22.4181 58.1755 21.8297 58.0853 20.6078H56.0575C56.1026 21.694 56.5081 22.5086 57.2291 23.097C57.9501 23.6853 58.9866 23.9569 60.3385 23.9569C61.6453 23.9569 62.6367 23.6401 63.3577 23.0065C64.1238 22.4181 64.4843 21.6487 64.4843 20.6983C64.4843 20.2909 64.3942 19.9289 64.2139 19.6121C64.0337 19.2953 63.8534 19.069 63.6731 18.8879C63.4929 18.7522 63.1775 18.5711 62.7719 18.3901C62.6248 18.3409 62.4897 18.2916 62.3663 18.2467C62.1494 18.1678 61.9692 18.1021 61.8256 18.0733C61.6003 17.9828 61.2848 17.8922 60.7891 17.8017C60.6964 17.8017 60.6036 17.7804 60.4817 17.7524C60.426 17.7396 60.3641 17.7254 60.2934 17.7112C60.2074 17.6939 60.1344 17.6832 60.0722 17.6741C59.9714 17.6593 59.8985 17.6487 59.8428 17.6207C59.7871 17.6207 59.7314 17.6034 59.6544 17.5795C59.6068 17.5647 59.5511 17.5475 59.4823 17.5302C59.302 17.5302 59.1668 17.4849 59.1218 17.4397L58.8514 17.3039C58.7613 17.2586 58.6711 17.2134 58.6261 17.1681C58.581 17.1228 58.536 17.0776 58.4909 16.9871C58.4458 16.9418 58.4008 16.8513 58.4008 16.7608C58.3557 16.6703 58.3557 16.5345 58.3557 16.444C58.3557 16.0819 58.4909 15.8103 58.8063 15.6293C59.1218 15.403 59.5273 15.3125 60.0681 15.3125C61.3299 15.3125 62.0058 15.8556 62.141 16.8513Z" fill="#6f6d81"/>
<path d="M70.8833 14.0905V15.6293H68.9455V21.3319C68.9455 21.4251 68.9668 21.4969 68.9946 21.5913C69.0074 21.6345 69.0215 21.6824 69.0357 21.7392C69.0807 21.875 69.2159 21.9655 69.3511 22.0108C69.4863 22.0561 69.7116 22.1013 69.982 22.1013C70.3425 22.1013 70.6129 22.1013 70.7931 22.0561V23.7306C70.3876 23.7759 69.8919 23.8211 69.3511 23.8211C68.9906 23.8211 68.6752 23.7759 68.3597 23.7306C68.1827 23.701 68.025 23.652 67.8866 23.6089C67.8136 23.5862 67.746 23.5652 67.6838 23.5496C67.5035 23.4591 67.3233 23.3686 67.2331 23.1875C67.098 23.0065 67.0078 22.8707 66.9628 22.7349C66.8726 22.5992 66.8276 22.4181 66.8276 22.1013C66.7825 21.7845 66.7825 21.5582 66.7825 21.4224V15.6293H65.2053V14.0905H66.7825V11.194H68.9005V14.0905H70.8833Z" fill="#6f6d81"/>
<path fill-rule="evenodd" clip-rule="evenodd" d="M74.3531 15.3577V14.0905H72.3703V27.2155H74.4432V22.4181C75.1642 23.4138 76.2006 23.9116 77.5525 23.9116C78.8143 23.9116 79.8508 23.459 80.6168 22.5539C81.3829 21.6487 81.7885 20.4267 81.7885 18.9332C81.7885 17.3944 81.428 16.1724 80.6168 15.222C79.8508 14.2715 78.7692 13.819 77.4624 13.819C76.0204 13.819 74.9839 14.3168 74.3531 15.3577ZM75.1191 16.3987C75.5698 15.8103 76.2457 15.4935 77.0568 15.4935C77.868 15.4935 78.4989 15.8103 78.9946 16.444C79.4902 17.0776 79.7156 17.8922 79.7156 18.9332C79.7156 19.9289 79.4452 20.7435 78.9946 21.3319C78.5439 21.9202 77.913 22.2371 77.1019 22.2371C76.2457 22.2371 75.6148 21.9202 75.1191 21.3319C74.6234 20.7435 74.3981 19.9289 74.3981 18.8879C74.3981 17.8017 74.6685 16.9871 75.1191 16.3987Z" fill="#6f6d81"/>
<path d="M90.2604 23.6401V10.4246H88.1875V23.6401H90.2604Z" fill="#6f6d81"/>
<path fill-rule="evenodd" clip-rule="evenodd" d="M96.9747 13.7737C98.4167 13.7737 99.5884 14.2263 100.445 15.1315C101.301 16.0366 101.751 17.2586 101.751 18.8427C101.751 20.3815 101.301 21.6487 100.445 22.5539C99.5884 23.4591 98.4167 23.9116 96.9747 23.9116C95.4876 23.9116 94.316 23.4591 93.4147 22.5539C92.5585 21.6487 92.1079 20.3815 92.1079 18.8427C92.1079 17.3039 92.5585 16.0819 93.4147 15.1315C94.316 14.2716 95.4876 13.7737 96.9747 13.7737ZM98.9124 16.3534C98.4167 15.7651 97.7859 15.4483 96.9297 15.4483C96.0735 15.4483 95.4426 15.7651 94.9469 16.3534C94.4512 16.9418 94.2259 17.8017 94.2259 18.8427C94.2259 19.9289 94.4512 20.7435 94.9469 21.3772C95.4426 21.9655 96.0735 22.2823 96.9297 22.2823C97.7408 22.2823 98.4167 21.9655 98.8674 21.3772C99.3631 20.7435 99.5884 19.9289 99.5884 18.8427C99.6334 17.8017 99.4081 16.9871 98.9124 16.3534Z" fill="#6f6d81"/>
<path d="M108.195 15.6293V14.0905H106.213V11.194H104.095V14.0905H102.517V15.6293H104.095V21.4224C104.095 21.5582 104.095 21.7846 104.14 22.1013C104.14 22.4181 104.185 22.5992 104.275 22.7349C104.32 22.8707 104.41 23.0065 104.545 23.1875C104.635 23.3686 104.816 23.4591 104.996 23.5496C105.058 23.5652 105.126 23.5862 105.199 23.6089C105.337 23.652 105.495 23.701 105.672 23.7306C105.987 23.7759 106.303 23.8211 106.663 23.8211C107.204 23.8211 107.7 23.7759 108.105 23.7306V22.0561C107.925 22.1013 107.655 22.1013 107.294 22.1013C107.024 22.1013 106.798 22.0561 106.663 22.0108C106.528 21.9655 106.393 21.875 106.348 21.7392C106.334 21.6824 106.32 21.6345 106.307 21.5913C106.279 21.4969 106.258 21.4251 106.258 21.3319V15.6293H108.195Z" fill="#6f6d81"/>
<path d="M13.7126 0.875L16.7477 10.2569H26.5698L13.7126 19.6388L5.76634 25.4371L8.8015 16.0552L0.855286 10.2569H10.6773L13.7126 0.875Z" fill="#6f6d81"/>
<path d="M19.4229 18.5259L21.6588 25.4371L13.7126 19.6388L19.4229 18.5259Z" fill="#6f6d81"/>
</svg>
